<?xml version="1.0" encoding="UTF-8" standalone="no"?><!DOCTYPE svg PUBLIC "-//W3C//DTD SVG 1.1//EN" "http://www.w3.org/Graphics/SVG/1.1/DTD/svg11.dtd"><svg width="100%" height="100%" viewBox="0 0 519 518" version="1.1" xmlns="http://www.w3.org/2000/svg" xmlns:xlink="http://www.w3.org/1999/xlink" xml:space="preserve" xmlns:serif="http://www.serif.com/" style="fill-rule:evenodd;clip-rule:evenodd;stroke-linejoin:round;stroke-miterlimit:2;"><rect id="yarnKitten" x="0.742" y="0" width="518.088" height="518" style="fill:none;"/><clipPath id="_clip1"><rect id="yarnKitten1" serif:id="yarnKitten" x="0.742" y="0" width="518.088" height="518"/></clipPath><g clip-path="url(#_clip1)"><g><path d="M985.342,309.8c-0,14.8 11.2,17.6 19.2,17.6c11.6,0 11.2,-9.6 11.2,-17.2l-0,-58.4c2.8,-31.6 27.6,-66 39.2,-66c7.6,0 8.4,10.4 8.4,22.8l-0,81.2c-0,20.4 12.4,37.6 33.6,37.6c34.4,0 51.4,-36 58.2,-62.4c0.4,-1.6 0.4,-2.4 0.4,-2.8c-0,-7.6 -7.6,-16.4 -14,-16.4c-4,0 -8,3.6 -9.6,12c-3.6,17.6 -11.8,43.2 -27.8,43.2c-10.4,0 -10.4,-14.8 -10.4,-18.4l-0,-82.8c-0,-18.4 -6.4,-40.4 -33.2,-40.4c-19.6,0 -34,17.2 -44.8,39.6l-0,-18c-0,-9.6 -8.4,-17.6 -21.6,-17.6c-5.6,0 -10.4,2.8 -10.4,6.8c-0,2.8 1.6,5.2 1.6,12.8l-0,126.8Zm-725.6,-309.8c143,-0 259,116 259,259c-0,143 -116,259 -259,259c-143,0 -259,-116 -259,-259c-0,-143 116,-259 259,-259Z" style="fill:#2c8ebb;fill-rule:nonzero;"/><path d="M435.942,337.5c-1.8,-14.2 -13.8,-24 -29.2,-23.8c-23,0.3 -42.3,12.2 -55.1,20.1c-5,3.1 -9.3,5.4 -13,7.1c0.8,-11.6 0.1,-26.8 -5.9,-43.5c-7.3,-20 -17.1,-32.3 -24.1,-39.4c8.1,-11.8 19.2,-29 24.4,-55.6c4.5,-22.7 3.1,-58 -7.2,-77.8c-2.1,-4 -5.6,-6.9 -10,-8.1c-1.8,-0.5 -5.2,-1.5 -11.9,0.4c-10.1,-20.9 -13.6,-23.1 -16.3,-24.9c-5.6,-3.6 -12.2,-4.4 -18.4,-2.1c-8.3,3 -15.4,11 -22.1,25.2c-1,2.1 -1.9,4.1 -2.7,6.1c-12.7,0.9 -32.7,5.5 -49.6,23.8c-2.1,2.3 -6.2,4 -10.5,5.6l0.1,-0c-8.8,3.1 -12.8,10.3 -17.7,23.3c-6.8,18.2 0.2,36.1 7.1,47.7c-9.4,8.4 -21.9,21.8 -28.5,37.5c-8.2,19.4 -9.1,38.4 -8.8,48.7c-7,7.4 -17.8,21.3 -19,36.9c-1.6,21.8 6.3,36.6 9.8,42c1,1.6 2.1,2.9 3.3,4.2c-0.4,2.7 -0.5,5.6 0.1,8.6c1.3,7 5.7,12.7 12.4,16.3c13.2,7 31.6,10 45.8,2.9c5.1,5.4 14.4,10.6 31.3,10.6l1,-0c4.3,-0 58.9,-2.9 74.8,-6.8c7.1,-1.7 12,-4.7 15.2,-7.4c10.2,-3.2 38.4,-12.8 65,-30c18.8,-12.2 25.3,-14.8 39.3,-18.2c13.6,-3.3 22.1,-15.7 20.4,-29.4Zm-23.8,14.7c-16,3.8 -24.1,7.3 -43.9,20.2c-30.9,20 -64.7,29.3 -64.7,29.3c-0,-0 -2.8,4.2 -10.9,6.1c-14,3.4 -66.7,6.3 -71.5,6.4c-12.9,0.1 -20.8,-3.3 -23,-8.6c-6.7,-16 9.6,-23 9.6,-23c-0,-0 -3.6,-2.2 -5.7,-4.2c-1.9,-1.9 -3.9,-5.7 -4.5,-4.3c-2.5,6.1 -3.8,21 -10.5,27.7c-9.2,9.3 -26.6,6.2 -36.9,0.8c-11.3,-6 0.8,-20.1 0.8,-20.1c-0,-0 -6.1,3.6 -11,-3.8c-4.4,-6.8 -8.5,-18.4 -7.4,-32.7c1.2,-16.3 19.4,-32.1 19.4,-32.1c-0,-0 -3.2,-24.1 7.3,-48.8c9.5,-22.5 35.1,-40.6 35.1,-40.6c-0,-0 -21.5,-23.8 -13.5,-45.2c5.2,-14 7.3,-13.9 9,-14.5c6,-2.3 11.8,-4.8 16.1,-9.5c21.5,-23.2 48.9,-18.8 48.9,-18.8c-0,-0 13,-39.5 25,-31.8c3.7,2.4 17,32 17,32c-0,-0 14.2,-8.3 15.8,-5.2c8.6,16.7 9.6,48.6 5.8,68c-6.4,32 -22.4,49.2 -28.8,60c-1.5,2.5 17.2,10.4 29,43.1c10.9,29.9 1.2,55 2.9,57.8c0.3,0.5 0.4,0.7 0.4,0.7c-0,-0 12.5,1 37.6,-14.5c13.4,-8.3 29.3,-17.6 47.4,-17.8c17.5,-0.3 18.4,20.2 5.2,23.4Z" style="fill:#fff;fill-rule:nonzero;"/></g></g></svg>