<?xml version="1.0" encoding="UTF-8" standalone="no"?>
<!DOCTYPE svg PUBLIC "-//W3C//DTD SVG 1.1//EN" "http://www.w3.org/Graphics/SVG/1.1/DTD/svg11.dtd">
<svg width="100%" height="100%" viewBox="0 0 1000 185" version="1.1" xmlns="http://www.w3.org/2000/svg" xmlns:xlink="http://www.w3.org/1999/xlink" xml:space="preserve" xmlns:serif="http://www.serif.com/" style="fill-rule:evenodd;clip-rule:evenodd;stroke-linejoin:round;stroke-miterlimit:2;">
    <rect id="windowsLogoAndWordmark" x="0" y="0" width="1000" height="184.24" style="fill:none;"/>
    <clipPath id="_clip1">
        <rect id="windowsLogoAndWordmark1" serif:id="windowsLogoAndWordmark" x="0" y="0" width="1000" height="184.24"/>
    </clipPath>
    <g clip-path="url(#_clip1)">
        <g transform="matrix(1,0,0,1,1025.1,-85.339)">
            <path d="M-663.958,232.308L-686.695,232.308L-708.865,147.918L-731.279,232.308L-754.518,232.308L-785.002,122.617L-764.379,122.617L-742.397,209.869L-718.398,122.617L-697.568,122.617L-675.011,210.387L-654.133,122.617L-634.22,122.617L-663.958,232.308Z" style="fill:rgb(0,120,212);fill-rule:nonzero;"/>
            <path d="M-605.072,130.641C-605.072,133.607 -606.165,136.078 -608.35,138.055C-610.483,140.032 -613.084,141.02 -616.153,141.02C-619.223,141.02 -621.824,140.032 -623.957,138.055C-626.09,136.078 -627.157,133.607 -627.157,130.641C-627.157,127.624 -626.09,125.101 -623.957,123.072C-621.772,121.043 -619.171,120.028 -616.153,120.028C-612.98,120.028 -610.353,121.069 -608.271,123.15C-606.139,125.231 -605.072,127.728 -605.072,130.641L-605.072,130.641ZM-625.641,232.304L-625.641,153.255L-607.211,153.255L-607.211,232.304L-625.641,232.304Z" style="fill:rgb(0,120,212);fill-rule:nonzero;"/>
            <path d="M-536.284,232.308L-536.284,188.295C-536.284,176.763 -539.861,166.815 -551.478,166.815C-563.035,166.815 -570.363,177.222 -570.363,187.749L-570.363,232.306L-588.39,232.306L-588.39,153.257L-570.363,153.257L-570.363,164.438L-570.051,164.438C-564.068,155.176 -555.432,151.923 -544.143,151.923C-535.663,151.923 -529.108,154.011 -524.478,159.421C-519.796,164.832 -517.74,173.052 -517.74,184.081L-517.74,232.305L-536.284,232.308Z" style="fill:rgb(0,120,212);fill-rule:nonzero;"/>
            <path d="M-445.763,232.308L-445.763,222.132L-446.075,222.132C-451.798,231.757 -463.479,233.976 -471.624,233.976C-495.829,233.976 -504.711,215.173 -504.711,195.163C-504.711,181.897 -501.408,171.284 -494.8,163.324C-488.141,155.312 -479.245,151.844 -468.112,151.844C-450.78,151.844 -446.075,161.487 -446.075,161.487L-445.763,161.487L-445.763,115.739L-427.064,115.739L-427.064,232.309L-445.763,232.308ZM-445.607,187.263C-445.607,177.714 -451.744,166.865 -464.695,166.865C-479.511,166.865 -485.269,179.758 -485.269,194.618C-485.269,207.592 -479.836,219.367 -465.727,219.562C-451.892,219.562 -445.719,206.377 -445.607,195.477L-445.607,187.263Z" style="fill:rgb(0,120,212);fill-rule:nonzero;"/>
            <path d="M-332.731,192.434C-332.731,219.815 -349.096,234.648 -373.671,234.648C-400.396,234.648 -414.094,218.65 -414.094,194.15C-414.094,166.121 -397.68,151.542 -371.721,151.542C-347.936,151.542 -332.731,166.747 -332.731,192.434ZM-351.929,193.058C-351.929,180.876 -356.247,167.334 -372.736,167.334C-388.551,167.334 -394.694,179.103 -394.694,193.526C-394.694,209.195 -387.315,219.161 -372.849,219.161C-357.351,219.161 -352.042,207.266 -351.929,193.058L-351.929,193.058Z" style="fill:rgb(0,120,212);fill-rule:nonzero;"/>
            <path d="M-233.82,232.308L-254.158,232.308L-269.704,175.097L-286.383,232.308L-306.123,232.308L-329.12,153.5L-309.821,153.5L-294.803,214.726L-277.25,153.5L-259.148,153.5L-243.498,214.567L-228.858,153.5L-211.171,153.5L-233.82,232.308Z" style="fill:rgb(0,120,212);fill-rule:nonzero;"/>
            <path d="M-153.281,210.304C-153.281,227.903 -169.24,234.763 -185.238,234.763C-195.658,234.763 -206.033,230.749 -206.033,230.749L-206.033,212.029C-206.033,212.029 -197.015,219.888 -184.417,219.986C-175.781,219.986 -171.891,217.263 -171.891,212.078C-171.678,207.918 -174.21,205.624 -177.238,203.904C-179.319,202.656 -182.57,201.121 -186.993,199.3C-192.195,197.063 -196.071,194.904 -198.62,192.823C-201.117,190.742 -202.99,188.297 -204.239,185.488C-205.435,182.678 -206.319,179.591 -206.319,175.845C-206.319,161.634 -194.467,151.593 -175.521,151.593C-162.999,151.593 -157.573,154.663 -157.573,154.663L-157.573,172.447C-157.573,172.447 -166.472,166.297 -175.718,166.241C-182.343,166.241 -187.353,168.653 -187.44,174.112C-187.487,181.148 -178.871,184.577 -173.726,186.659C-166.235,189.676 -160.753,192.897 -157.683,196.591C-154.614,200.285 -153.281,204.004 -153.281,210.304L-153.281,210.304Z" style="fill:rgb(0,120,212);fill-rule:nonzero;"/>
            <path d="M-80.773,119.42L-80.773,232.308L-99.631,232.308L-99.631,142.26C-99.631,142.26 -106.097,148.233 -122.692,152.561L-122.692,136.491C-98.028,127.37 -89.174,119.421 -89.174,119.421L-80.773,119.42Z" style="fill:rgb(0,120,212);fill-rule:nonzero;"/>
            <rect x="-1025.1" y="85.339" width="87.327" height="87.327" style="fill:rgb(0,120,212);"/>
            <rect x="-928.188" y="85.339" width="87.327" height="87.327" style="fill:rgb(0,120,212);"/>
            <rect x="-1025.1" y="182.255" width="87.327" height="87.327" style="fill:rgb(0,120,212);"/>
            <rect x="-928.188" y="182.255" width="87.327" height="87.327" style="fill:rgb(0,120,212);"/>
            <path d="M-25.084,119.42L-25.084,232.308L-43.942,232.308L-43.942,142.26C-43.942,142.26 -50.408,148.233 -67.003,152.561L-67.003,136.491C-42.339,127.37 -33.485,119.421 -33.485,119.421L-25.084,119.42Z" style="fill:rgb(0,120,212);fill-rule:nonzero;"/>
        </g>
    </g>
</svg>
