<?xml version="1.0" encoding="UTF-8" standalone="no"?><!DOCTYPE svg PUBLIC "-//W3C//DTD SVG 1.1//EN" "http://www.w3.org/Graphics/SVG/1.1/DTD/svg11.dtd"><svg width="100%" height="100%" viewBox="0 0 3462 1074" version="1.1" xmlns="http://www.w3.org/2000/svg" xmlns:xlink="http://www.w3.org/1999/xlink" xml:space="preserve" xmlns:serif="http://www.serif.com/" style="fill-rule:evenodd;clip-rule:evenodd;stroke-linecap:round;stroke-linejoin:round;stroke-miterlimit:1.5;"><rect id="fullThicc" x="0" y="0.025" width="3461.32" height="1073.85" style="fill:none;"/><g id="fullThicc1" serif:id="fullThicc"><path d="M283.337,121.53c-7.066,-18.028 -19.388,-23.542 -19.951,-23.786c-8.392,-1.787 -13.925,-9.932 -12.414,-18.445c1.544,-8.694 9.856,-14.5 18.55,-12.957c0,0 25.193,2.881 40.834,36.563c30.207,-18.14 61.29,-28.323 89.933,-31.515c37.863,-4.219 71.831,3.713 95.637,20.95c28.016,20.285 43.198,53.225 34.886,96.687c-7.346,38.414 -34.269,86.357 -90.422,140.717c-60.637,58.702 -91.705,101.411 -101.098,131.397c-4.116,13.142 -3.96,22.652 2.451,28.537c5.455,5.007 13.921,7.218 24.11,8.1c12.96,1.122 28.381,-0.348 45.198,-3.922c25.722,-5.466 54.508,-15.836 82.895,-30.216c-1.187,-12.129 -1.009,-26.024 0.849,-41.858c7.68,-65.455 52.987,-102.713 90.838,-113.554c18.8,-5.385 36.089,-4.191 47.887,1.735c13.614,6.838 21.933,19.233 20.56,37.492c-1.365,18.16 -15.214,45.731 -52.637,80.608c-21.455,19.995 -46.051,37.634 -71.585,52.381c0.089,0.246 0.18,0.491 0.271,0.734c3.856,10.226 9.904,16.893 17.727,20.122c10.602,4.377 23.568,2.968 36.928,-1.636c23.492,-8.096 47.854,-26.455 65.331,-49.62c21.885,-29.009 38.327,-56.544 49.984,-79.229c10.256,-33.728 17.758,-52.284 21.524,-59.252c4.436,-8.211 9.991,-10.293 11.869,-10.839c5.929,-1.725 10.825,-0.296 14.893,3.056c2.252,1.855 5.241,5.107 5.922,11.062c0.249,2.176 -0.156,8.189 -2.937,17.102c-3.343,10.715 -10.21,28.312 -21.198,50.144c-1.555,5.049 -3.152,10.407 -4.771,16.058c-11.863,41.426 -17.436,71.543 -17.187,90.912c0.049,3.736 0.807,7.904 1.404,10.631c2.935,-1.537 7.771,-4.268 11.449,-7.323c12.075,-10.028 26.701,-26.539 43.587,-49.131c37.349,-49.973 73.205,-107.668 90.421,-128.83c6.779,-8.334 12.919,-12.32 16.077,-13.33c5.274,-1.686 9.685,-0.828 13.27,1.001c3.997,2.038 9.945,6.744 9.644,17.865c-0.258,9.549 -9.489,39.813 -32.851,100.404c-1.774,4.601 -3.475,9.024 -5.104,13.274c11.992,-17.099 25.412,-35.776 39.82,-54.597c31.908,-41.68 59.218,-67.835 76.857,-76.766c14.356,-7.268 25.637,-5.441 32.981,0.051c6.491,4.854 12.103,14.741 11.317,31.583c-1.068,22.903 -14.018,65.562 -43.882,130.252c-5.88,12.736 -8.853,25.951 -9.94,31.548c0.699,-0.045 1.413,-0.115 2.035,-0.222c4.157,-0.716 8.949,-2.202 14.314,-4.254c21.566,-8.249 50.705,-24.993 83.219,-45.469c1.399,-18.063 6.476,-39.142 16.381,-63.522c18.902,-46.526 50,-67.479 74.717,-72.178c13.026,-2.476 24.797,-0.651 33.803,3.987c14.048,7.236 22.62,20.954 20.544,39.592c-2.136,19.184 -18.482,47.069 -62.638,76.37c-17.449,11.58 -34.742,22.972 -51.386,33.639c1.213,12.697 5.674,22.43 12.817,29.545c9.148,9.113 22.272,13.027 36.295,13.519c23.693,0.83 50.084,-8.166 68.784,-23.542c89.689,-73.746 134.643,-148.75 148.061,-172.287c3.63,-6.368 5.962,-9.916 6.5,-10.506c8.024,-8.817 16.445,-5.044 19.577,-3.337c0.89,0.485 11.859,7.184 6.939,21.099c-3.053,8.633 -19.827,50.85 -45.684,145.084c-3.798,13.838 -3.198,24.653 2.288,32.456c9.107,12.952 28.544,16.791 51.654,15.83c68.974,-2.87 169.964,-54.919 200.635,-144.171c8.779,-25.547 15.863,-43.3 20.479,-52.588c3.549,-7.141 7.023,-11.001 8.883,-12.449c4.074,-3.17 8.006,-3.76 11.062,-3.653c4.096,0.144 7.798,1.606 10.964,4.7c1.83,1.788 6.372,7.985 4.876,19.92c-2.706,21.579 -23.089,95.988 -70.741,233.035c45.787,-17.807 73.432,-21.894 73.432,-21.894c0.729,-0.11 1.464,-0.171 2.201,-0.18c0,-0 8.808,-0.78 16.37,7.27c3.87,4.12 9.077,12.022 7.168,28.724c-1.008,8.823 -4.244,21.506 -11.926,39.585c-17.389,40.93 -21.031,83.926 -12.684,113.023c4.049,14.114 10.226,25.057 21.121,26.68c7.726,1.151 16.619,-2.372 27.116,-9.857c21.042,-15.004 45.607,-44.917 73.581,-94.098c29.633,-52.099 39.518,-83.444 41.565,-90.625c-0.151,-1.951 -0.051,-3.49 0.071,-4.453c0.684,-5.403 3.282,-8.377 4.572,-9.705c5.868,-6.039 12.332,-6.162 18.307,-3.387c1.798,0.834 8.944,3.902 9.471,14.69c1.281,1.204 4.165,3.641 7.94,5.164c10.045,4.052 26.169,6.408 51.786,5.051c50.538,-2.677 80.318,-14.11 83.711,-15.473c0.809,-0.523 1.384,-0.854 1.702,-1.021c9.96,-5.251 16.761,0.789 17.573,1.422c4.562,3.557 7.205,8.518 5.892,15.556c-0.191,1.023 -0.622,5.996 -6.622,10.245c-0.297,0.211 -1.028,0.672 -2.239,1.323c-3.141,2.408 -28.996,23.39 -54.53,80.273c-13.449,29.961 -20.75,52.559 -22.693,68.699c-0.602,5.004 -0.685,9.199 -0.069,12.623c0.232,1.287 -0.075,2.511 0.76,2.961c2.104,1.134 4.926,0.036 8.422,-0.986c7.253,-2.12 15.723,-6.498 25.209,-12.674c21.683,-14.116 47.695,-37.122 75.064,-67.05c15.78,-46.856 43.673,-114.759 88.786,-209.267c31.513,-66.017 61.338,-110.784 80.851,-130.85c7.859,-8.082 14.817,-12.742 19.95,-14.681c4.962,-1.874 9.349,-1.997 13.007,-1.246c8.129,1.669 16.289,7.685 17.151,22.702c0.397,6.91 -1.046,17.634 -5.358,32.236c-8.554,28.969 -28.779,76.198 -64.991,143.49c-5.823,10.82 -11.811,21.427 -17.928,31.798c1.544,-0.404 3.071,-0.733 4.579,-0.992c27.977,-4.797 52.983,12.169 61.37,38.042c5.224,16.113 4.042,35.873 -8.073,55.44c-18.231,29.446 -38.137,41.815 -54.882,46.729c-9.816,2.88 -18.805,3.247 -26.352,2.503c0.68,17.042 4.633,42.688 20.261,63.578c1.602,2.141 2.788,3.936 4.596,4.198c1.461,0.212 2.822,-0.74 4.416,-1.716c2.542,-1.558 5.111,-3.75 7.779,-6.423c22.081,-22.117 46.852,-71.769 73.293,-129.2c18.015,-39.128 57.997,-64.303 96.415,-69.404c27.298,-3.625 53.621,2.834 71.815,19.896c1.282,1.201 2.528,2.459 3.735,3.773c21.297,0.194 35.548,-0.885 45.012,-2.792c0.972,-2.711 1.878,-4.97 2.716,-6.845c2.854,-6.383 5.658,-9.88 7.724,-11.835c4.811,-4.553 9.467,-5.418 13.155,-5.39c6.181,0.047 11.941,3.246 15.551,9.04c1.158,1.859 2.003,4.023 2.547,5.68c1.31,2.986 2.95,8.556 1.165,15.354c-1.229,4.676 -4.086,10.655 -12.18,16.027c-1.376,0.914 -3.024,1.848 -4.996,2.776c-2.273,8.358 -4.883,19.355 -7.921,33.722c-6.349,30.023 -8.073,71.275 -3.816,101.142c1.272,8.921 3.028,16.735 5.53,22.638c0.322,0.761 0.781,1.616 1.24,2.406c1.555,-1.327 3.582,-3.191 5.149,-5.106c12.833,-15.684 28.63,-47.884 48.489,-103.013c12.114,-33.63 22.243,-57.115 28.332,-65.549c5.205,-7.209 11.082,-9.261 14.631,-9.698c3.825,-0.47 7.359,0.26 10.619,2.096c3.168,1.786 7.203,5.25 9.033,12.473c2.074,8.189 0.62,34.546 -7.627,84.169c-5.129,30.867 -3.501,57.87 3.513,75.573c2.863,7.223 5.816,12.981 10.943,14.18c5.222,1.222 10.443,-2.976 17.126,-9.88c16.899,-17.456 35.236,-52.468 53.667,-110.177c13.202,-41.337 19.409,-61.971 21.904,-70.484c-0.049,-2.053 0.296,-4.121 1.045,-6.086c0,-0 1.982,-4.57 2.77,-5.751c1.935,-2.899 4.12,-4.347 5.432,-5.101c5.998,-3.448 11.297,-2.529 15.583,-0.226c1.337,0.718 6.871,3.216 8.213,10.304c6.206,3.178 20.694,8.068 46.803,3.99c38.301,-5.982 54.083,-13.871 54.083,-13.871l10.318,28.182c4.349,-0 8.511,-1.771 11.527,-4.904c2.988,-3.103 4.596,-7.278 4.466,-11.58c0.107,3.223 2.066,68.313 -11.841,123.36c13.534,-9.595 27.405,-21.928 41.393,-37.651c12.357,-35.663 28.685,-80.413 49.546,-135.531c31.169,-82.351 54.952,-134.393 70.636,-161.764c8.035,-14.023 14.675,-22.357 19.13,-26.057c8.284,-6.881 15.751,-6.099 20.631,-4.114c4.269,1.736 8.523,5.157 10.782,11.826c1.857,5.481 1.922,18.531 -2.559,37.828c-8.204,35.339 -30.097,97.889 -66.991,176.651c-23.71,50.616 -48.443,88.759 -72.991,117.43c-6.169,17.916 -11.247,33.334 -15.313,46.444c9.146,-14.302 19.507,-31.258 30.77,-50.102c35.006,-58.564 71.187,-90.437 100.134,-104.431c23.442,-11.332 43.374,-11.497 56.81,-5.902c24.748,10.304 36.236,41.817 8.209,80.719c-36.372,50.485 -77.125,60.278 -101.441,60.878c2.309,9.879 7.323,24.442 18.181,42.45c13.214,21.915 44.73,38.262 76.815,26.093c20.502,-7.776 40.588,-26.571 57.635,-60.31c2.475,-5.52 5.136,-11.341 7.984,-17.469c0.029,-0.068 0.057,-0.137 0.085,-0.205c21.091,-51.056 39.716,-91.473 49.229,-110.621c4.528,-9.115 7.853,-14.33 8.802,-15.39c3.727,-4.161 7.562,-4.941 9.524,-5.261c4.72,-0.771 8.634,0.434 11.917,2.779c2.629,1.88 6.822,5.574 6.729,13.333c-0.011,0.955 -0.4,4.564 -2.793,10.581c-4.535,11.402 -18.57,42.787 -46.075,100.446c-15.049,31.549 -26.16,60.068 -32.464,77.288c2.915,-1.742 5.94,-3.648 8.819,-5.633c36.258,-25.003 97.882,-75.745 187.273,-143.214c7.049,-5.319 17.09,-3.916 22.41,3.132c5.32,7.049 3.916,17.09 -3.132,22.41c-113.369,85.566 -182.907,144.365 -212.986,159.05c-14.595,7.125 -25.05,5.287 -30.626,1.587c-4.128,-2.739 -7.787,-7.126 -9.159,-14c-7.261,4.917 -14.579,8.669 -21.824,11.417c-48.3,18.319 -95.675,-6.499 -115.567,-39.489c-26.897,-44.609 -25.582,-70.72 -24.413,-78.128c-0.87,1.418 -1.739,2.854 -2.608,4.308c-24.126,40.363 -44.335,72.305 -57.577,88.921c-8.477,10.638 -16.03,15.982 -20.37,17.368c-5.604,1.789 -10.345,0.957 -14.259,-1.057c-3.621,-1.862 -7.072,-5.014 -9.063,-10.554c-1.421,-3.957 -2.168,-11.973 0.193,-24.494c1.675,-8.889 4.851,-21.213 9.706,-37.384c-13.659,9.989 -26.992,17.508 -39.77,23.127c-9.226,15.287 -20.972,26.974 -35.299,32.954c-33.954,14.173 -57.489,16.5 -73.035,13.872c-13.983,-2.364 -23.007,-8.61 -28.662,-15.621c-6.953,-8.621 -9.085,-18.887 -8.025,-27.707c2.118,-17.624 16.162,-28.225 30.543,-25.17c17.257,3.665 51.062,11.053 91.882,-3.728c5.22,-11.177 9.092,-24.081 12.049,-37.392c6.696,-30.132 8.62,-62.357 9.084,-83.429c-10.359,3.101 -24.438,6.366 -43.513,9.346c-27.636,4.316 -46.464,1.626 -59.08,-3.09c-3.705,12.155 -9.162,29.627 -17.126,54.562c-20.618,64.559 -42.254,103.172 -61.158,122.699c-17.237,17.805 -33.939,21.932 -47.407,18.782c-13.552,-3.171 -25.838,-14.459 -33.403,-33.551c-7.341,-18.526 -10.616,-45.319 -7.507,-76.303c-21.746,55.932 -39.724,85.449 -53.16,97.38c-12.112,10.755 -23.159,11.591 -32.015,8.38c-10.155,-3.681 -20.088,-16.284 -25.076,-36.499c-8.184,-33.161 -7.169,-89.369 1.106,-128.498c1.469,-6.942 2.87,-13.193 4.205,-18.816c-5.497,0.594 -11.634,1.051 -18.483,1.333c4.299,15.509 5.063,34.547 0.704,57.491c-12.309,64.792 -40.89,100.634 -71.911,117.087c-54.575,28.945 -118.726,-0.264 -139.191,-48.395c-1.965,3.246 -3.914,6.367 -5.847,9.355c-13.222,20.432 -26.207,34.902 -37.874,41.842c-9.38,5.581 -18.501,7.161 -27.061,5.387c-8.191,-1.697 -16.375,-6.591 -23.679,-16.355c-18.74,-25.05 -24.569,-55.39 -26.091,-77.063c-17.011,39.453 -39.125,70.54 -53.791,80.786c-10.146,7.089 -19.384,7.2 -25.851,4.435c-6.442,-2.754 -13.313,-9.404 -14.567,-23.663c-0.466,-5.298 -0.124,-12.497 1.303,-21.793c-3.827,3.463 -7.595,6.758 -11.294,9.881c-24.856,20.982 -47.067,34.328 -63.754,39.205c-13.446,3.93 -24.485,2.803 -32.581,-1.56c-9.035,-4.87 -15.863,-13.934 -17.577,-28.924c-2.109,-18.439 4.685,-50.109 25.569,-96.633c9.592,-21.369 19.159,-38.25 27.989,-51.49c-11.987,1.835 -26.102,3.352 -42.59,4.225c-35.296,1.87 -56.767,-3.107 -69.873,-9.403c-6.514,17.043 -17.911,41.713 -37.717,76.534c-31.194,54.845 -59.353,87.6 -82.818,104.332c-19.182,13.678 -36.291,17.556 -50.41,15.453c-21.893,-3.262 -39.028,-21.145 -47.165,-49.507c-9.914,-34.56 -6.662,-85.746 13.992,-134.361c5.076,-11.946 7.881,-20.865 9.111,-27.564c0.082,-0.446 0.151,-0.897 0.211,-1.346c-14.701,3.508 -43.257,11.627 -81.426,28.636c-8.862,24.956 -18.513,51.694 -29,80.262c-56.404,153.653 -156.819,254.851 -237.528,301.231c-36.818,21.157 -70.029,30.974 -93.965,30.371c-17.142,-0.432 -30.378,-6.009 -39.121,-15.245c-8.957,-9.463 -13.908,-23.219 -11.863,-41.809c3.023,-27.48 23.167,-69.047 69.342,-123.987c119.262,-141.898 235.199,-216.13 316.557,-254.387c17.08,-48.328 31.022,-89.467 42.177,-123.803c-51.067,58.169 -128.931,91.407 -187.116,93.828c-36.122,1.503 -64.926,-9.151 -79.161,-29.397c-10.073,-14.326 -13.942,-33.922 -6.971,-59.329c4.312,-15.714 8.375,-30.003 12.168,-42.95c-24.206,29.365 -55.963,62.852 -96.377,96.083c-24.524,20.164 -59.157,31.892 -90.228,30.804c-22.487,-0.788 -43.089,-8.215 -57.758,-22.827c-8.544,-8.511 -15.328,-19.781 -19.014,-34.143c-13.381,8.198 -26.078,15.637 -37.789,21.986c-24.347,13.2 -44.923,21.685 -59.125,23.648c-11.686,1.616 -20.598,-0.795 -26.686,-5.372c-6.565,-4.936 -11.205,-12.772 -11.214,-24.958c-0.007,-10.204 3.863,-25.426 13.491,-46.281c23.592,-51.102 36.284,-87.095 39.992,-109.649c0.468,-2.852 0.658,-5.836 0.715,-8.403c-3.674,2.206 -8.487,5.334 -12.372,8.679c-14.137,12.169 -31.536,31.503 -51.144,57.117c-42.854,55.978 -77.157,110.638 -91.412,127.238c-4.923,5.733 -9.33,8.502 -11.82,9.456c-3.619,1.386 -6.827,1.397 -9.512,0.885c-5.875,-1.122 -12.41,-4.585 -13.756,-15.092c-0.382,-2.984 0.065,-9.307 2.908,-19.234c4.507,-15.732 15.237,-45.248 33.608,-92.894c1.361,-3.529 2.673,-6.944 3.937,-10.248c-13.886,20.439 -29.313,42.807 -45.008,63.807c-28.473,38.096 -52.309,60.339 -68.416,67.269c-12.781,5.499 -23.125,3.871 -30.873,-1.645c-6.516,-4.639 -12.161,-13.313 -14.027,-27.425c-1.127,-8.524 -0.931,-19.865 0.788,-34.073c-0.694,0.932 -1.393,1.864 -2.098,2.798c-21.457,28.441 -51.608,50.662 -80.449,60.602c-21.532,7.42 -42.479,8.015 -59.565,0.961c-14.07,-5.808 -26.42,-17.078 -34.119,-35.42c-39.802,19.276 -79.907,31.27 -112.337,34.039c-30.622,2.616 -55.068,-3.378 -69.086,-16.245c-14.037,-12.885 -20.362,-32.904 -11.349,-61.678c10.283,-32.825 43,-80.563 109.378,-144.823c49.694,-48.108 74.747,-89.74 81.249,-123.735c5.536,-28.949 -3.563,-51.247 -22.223,-64.758c-24.666,-17.859 -63.622,-21.07 -104.712,-8.475c-17.477,5.357 -35.281,13.598 -52.638,24.917c0.197,1.168 0.385,2.355 0.563,3.562c5.424,36.859 1.135,95.914 -29.995,190.098c-83.654,253.097 -133.862,377.908 -159.679,419.187c-5.913,9.455 -11.155,15.317 -15.201,18.38c-3.896,2.949 -7.587,4.287 -10.752,4.783c-7.682,1.202 -14.387,-1.233 -19.518,-8.458c-3.526,-4.964 -6.599,-16.181 -6.382,-33.044c0.882,-68.886 42.341,-263.528 92.471,-433.254c23.985,-81.207 65.667,-138.084 112.021,-174.425Zm6.925,35.967c-36.547,32.959 -68.737,81.434 -88.257,147.523c-43.125,146.011 -79.988,310.721 -89.094,394.992c-0.583,5.398 -0.937,10.841 -1.139,15.983c0.62,-1.15 1.235,-2.32 1.839,-3.508c27.6,-54.243 74.223,-175.848 146.383,-394.169c25.115,-75.986 32.146,-126.809 30.268,-160.821Zm1241.9,459.61c-75.288,39.95 -174.479,109.958 -276.473,231.31c-40.172,47.797 -59.401,82.989 -62.031,106.897c-0.783,7.119 -0.135,12.688 3.295,16.312c3.643,3.848 9.544,5.073 16.687,5.253c26.839,0.676 66.869,-16.012 110.331,-47.752c68.789,-50.235 144.652,-138.491 190.316,-262.887c6.255,-17.039 12.21,-33.413 17.875,-49.133Zm609.387,20.383c3.057,-0.212 6.157,0.455 8.911,1.993c-0,-0 10.77,5.533 24.9,1.387c11.443,-3.358 24.228,-12.747 36.686,-32.87c14.538,-23.481 0.228,-48.681 -20.682,-45.096c-7.952,1.364 -16.098,6.663 -23.876,16.164c-9.694,11.841 -18.311,29.599 -24.881,54.515c-0.344,1.306 -0.697,2.609 -1.058,3.907Zm-34.084,2.339c-9.802,12.267 -19.587,23.821 -29.237,34.586c-2.679,8.211 -4.948,15.71 -6.838,22.532c-2.538,9.153 -4.148,17.921 -5.167,25.143c0.145,-0.183 0.289,-0.365 0.43,-0.547c14.087,-18.171 30.101,-48.161 40.812,-81.714Zm316.036,-49.405c-28.689,-0.917 -50.242,-2.817 -67.541,-2.587c-14.312,0.19 -25.127,1.656 -34.719,8.139c-14.511,9.806 -26.035,29.203 -42.917,64.396c-26.131,54.474 40.983,103.933 92.991,76.349c24.794,-13.15 45.629,-43.003 55.467,-94.789c4.191,-22.063 2.761,-39.104 -3.281,-51.508Zm342.347,145.487c-9.946,-0.689 -18.69,-2.069 -25.975,-3.456c2.432,2.654 6.905,3.916 13.393,4.207c3.73,0.167 7.908,-0.064 12.582,-0.751Zm227.201,-87.336c0.041,-0.025 0.082,-0.05 0.123,-0.074c3.699,-2.199 8.127,-2.815 12.285,-1.71c-0,0 47.543,10.998 89,-46.547c5.566,-7.724 8.896,-14.815 9.89,-21.09c0.562,-3.547 0.446,-6.649 -1.142,-8.916c-2.207,-3.153 -6.574,-3.878 -11.825,-3.658c-9.533,0.399 -21.191,4.766 -34.296,13.358c-19.71,12.921 -41.78,35.013 -64.035,68.637Zm-875.739,-75.428c18.728,-27.004 36.975,-56.46 53.816,-87.754c29.849,-55.467 48.527,-96.702 58.42,-124.901c1.053,-3 2.008,-5.824 2.863,-8.477c-17.604,22.242 -40.56,59.821 -64.836,110.677c-20.059,42.023 -36.663,78.67 -50.263,110.455Zm-1018.15,-150.813c9.481,-6.215 19.104,-12.582 28.78,-19.003c22.732,-15.085 36.755,-28.922 43.89,-41.048c4.273,-7.262 6.249,-13.028 3.997,-17.287c-2.287,-4.325 -8.245,-4.707 -14.709,-3.723c-17.681,2.693 -38.566,19.277 -52.264,52.994c-4.107,10.109 -7.319,19.452 -9.694,28.067Zm-574.022,23.727c19.389,-12.093 37.949,-25.999 54.482,-41.408c18.87,-17.585 30.923,-32.434 37.458,-44.775c4.277,-8.076 6.405,-14.133 4.729,-18.727c-0.821,-2.249 -3.208,-3.074 -5.813,-3.71c-6.004,-1.465 -13.523,-0.751 -21.556,1.55c-28.622,8.198 -62.059,37.024 -67.867,86.52c-0.867,7.389 -1.339,14.231 -1.433,20.55Zm2356.93,104.183c-0.003,-0.083 -0.004,-0.125 -0.004,-0.125c0.001,0.042 0.003,0.083 0.004,0.125Z"/><path d="M713.591,151.832c46.418,32.754 74.856,64.423 94.5,89.174" style="fill:none;stroke:#000;stroke-width:32px;"/><path d="M713.591,251.769c0,0 107.29,-111.895 158.197,-138.232" style="fill:none;stroke:#000;stroke-width:32px;"/><path d="M3231.85,421.474c36.08,43.882 55.111,81.955 67.495,111.026" style="fill:none;stroke:#000;stroke-width:32px;"/><path d="M3204.62,512.368c0,0 130.08,-84.326 185.668,-98.294" style="fill:none;stroke:#000;stroke-width:32px;"/></g></svg>