<?xml version="1.0" encoding="UTF-8" standalone="no"?><!DOCTYPE svg PUBLIC "-//W3C//DTD SVG 1.1//EN" "http://www.w3.org/Graphics/SVG/1.1/DTD/svg11.dtd"><svg width="100%" height="100%" viewBox="0 0 3462 1074" version="1.1" xmlns="http://www.w3.org/2000/svg" xmlns:xlink="http://www.w3.org/1999/xlink" xml:space="preserve" xmlns:serif="http://www.serif.com/" style="fill-rule:evenodd;clip-rule:evenodd;stroke-linecap:round;stroke-linejoin:round;stroke-miterlimit:1.5;"><rect id="full" x="0" y="0" width="3461.32" height="1073.85" style="fill:none;"/><g id="full1" serif:id="full"><path d="M2874.08,550.43c-0.001,-0.021 -0.001,-0.031 -0.001,-0.031c0,0.01 0,0.021 0.001,0.031Zm-2582.65,-425.071c-0.538,-1.942 -1.111,-3.791 -1.714,-5.551c-9.004,-26.307 -24.324,-29.849 -24.324,-29.849c-4.354,-0.736 -7.29,-4.869 -6.554,-9.222c0.736,-4.354 4.869,-7.29 9.222,-6.554c0,0 24.008,3.089 36.794,40.443c0.109,0.32 0.218,0.642 0.325,0.967c31.977,-21.17 65.384,-32.866 95.996,-36.277c35.634,-3.97 67.655,3.257 90.059,19.479c25.677,18.591 39.338,48.872 31.721,88.705c-7.136,37.309 -33.592,83.675 -88.129,136.471c-62.072,60.091 -93.552,104.058 -103.168,134.754c-5.335,17.03 -3.633,29.196 4.675,36.822c5.14,4.717 12.461,7.62 21.296,9.196c14.971,2.67 33.981,1.398 55.085,-3.086c27.819,-5.912 59.148,-17.428 89.791,-33.472c-1.769,-12.76 -1.836,-27.84 0.236,-45.496c7.211,-61.464 49.551,-96.615 85.095,-106.795c16.521,-4.732 31.725,-4.015 42.093,1.193c10.779,5.414 17.261,15.286 16.174,29.743c-1.284,17.071 -14.936,42.571 -50.114,75.356c-22.604,21.066 -48.767,39.476 -75.796,54.56c4.313,16.811 12.939,27.106 24.611,31.924c12.222,5.046 27.185,3.841 42.587,-1.467c24.829,-8.557 50.638,-27.881 69.11,-52.366c22.453,-29.761 39.259,-58.055 51.157,-81.395c11.516,-37.867 19.573,-56.461 22.728,-60.946c3.355,-4.77 7.415,-4.602 9.017,-4.337c2.591,0.428 6.318,1.994 6.956,7.568c0.273,2.382 -1.287,10.957 -6.102,23.889c-3.81,10.235 -9.579,23.736 -17.531,39.477c-1.639,5.284 -3.318,10.898 -5.016,16.826c-12.16,42.465 -17.751,73.362 -17.495,93.218c0.075,5.831 0.644,10.588 1.81,14.269c0.725,2.288 1.528,4.064 2.892,5.034c1.262,0.899 2.897,0.644 4.822,0.103c2.479,-0.695 5.208,-2.054 8.218,-3.966c13.665,-8.682 31.588,-27.788 53.105,-56.578c37.271,-49.868 73.039,-107.452 90.219,-128.57c5.306,-6.524 9.836,-9.968 12.308,-10.758c2.86,-0.915 5.254,-0.485 7.199,0.507c2.318,1.182 5.456,4.073 5.281,10.522c-0.252,9.306 -9.552,38.696 -32.319,97.743c-12.501,32.423 -21.414,56.134 -27.133,72.628c17.602,-25.029 44.327,-65.273 75.667,-106.211c30.866,-40.32 57.054,-65.852 74.118,-74.491c10.702,-5.419 19.101,-4.774 24.576,-0.68c5.05,3.776 8.728,11.702 8.117,24.804c-1.044,22.393 -13.954,64.02 -43.155,127.271c-7.253,15.711 -10.95,27.205 -11.262,35.242c-0.123,3.177 -0.02,5.524 1.617,6.754c2.015,1.515 5.108,1.317 8.977,0.783c12.293,-1.7 29.899,-9.548 50.973,-20.973c16.409,-8.896 34.781,-19.975 54.258,-32.283c0.867,-18.11 5.803,-39.681 16.121,-65.078c14.925,-36.736 37.731,-56.584 58.189,-64.314c15.137,-5.719 29.273,-4.917 39.257,0.225c11.191,5.763 17.91,16.747 16.256,31.594c-1.991,17.882 -17.95,43.276 -59.11,70.59c-18.736,12.432 -37.288,24.651 -55.044,35.979c0.579,17.493 6.15,30.472 15.252,39.538c10.528,10.488 25.522,15.28 41.661,15.846c25.538,0.894 53.989,-8.784 74.145,-25.357c90.834,-74.688 136.341,-150.668 149.93,-174.505c2.78,-4.876 4.443,-7.798 4.963,-8.479c2.039,-2.669 4.312,-3.023 5.166,-3.167c2.286,-0.385 4.193,0.168 5.804,1.25c1.199,0.805 2.362,1.998 3.06,3.899c0.149,0.408 1.016,2.924 -0.47,7.125c-3.064,8.665 -19.901,51.042 -45.856,145.633c-4.59,16.726 -3.172,29.743 3.459,39.174c10.385,14.771 32.178,20.318 58.531,19.222c71.492,-2.975 176.076,-57.053 207.868,-149.564c8.617,-25.075 15.546,-42.511 20.077,-51.627c2.726,-5.485 5.203,-8.584 6.632,-9.696c2.165,-1.685 4.244,-2.029 5.868,-1.972c2.113,0.074 4.021,0.831 5.653,2.427c1.008,0.985 2.189,2.595 2.666,5.237c0.275,1.524 0.34,4.173 -0.136,7.965c-2.798,22.313 -24.673,101.357 -76.192,248.125c54.418,-23.038 88.025,-28.078 88.025,-28.078c0.364,-0.056 0.732,-0.086 1.1,-0.091c0,0 5.596,-0.404 10.436,4.749c2.994,3.186 6.527,9.417 5.051,22.338c-0.952,8.334 -4.086,20.289 -11.341,37.365c-18.205,42.85 -21.75,87.895 -13.011,118.357c5.066,17.659 14.001,30.356 27.632,32.387c9.321,1.389 20.275,-2.226 32.94,-11.256c21.647,-15.436 47.111,-46.06 75.89,-96.656c23.713,-41.691 34.702,-67.171 39.616,-81.958c1.766,-5.316 2.678,-9.649 3.109,-12.104c-0.256,-1.759 -0.211,-3.141 -0.106,-3.967c1.116,-8.816 9.428,-7.837 11.573,-6.841c0.949,0.44 4.584,2.152 4.851,7.861c0.019,0.411 0.014,0.953 -0.032,1.641c0.856,1.69 2.921,5.005 6.892,7.48c9.525,5.936 27.603,10.44 61.278,8.656c55.89,-2.96 82.336,-14.189 87.148,-16.448c0.743,-0.49 1.274,-0.801 1.573,-0.958c5.054,-2.665 8.511,0.333 8.923,0.654c2.282,1.779 3.603,4.261 2.947,7.781c-0.097,0.519 -0.338,3.027 -3.381,5.183c-0.235,0.166 -0.754,0.489 -1.581,0.938c-4.188,3.134 -31.471,25.114 -57.863,83.91c-18.246,40.647 -25.462,67.968 -23.62,84.077c0.593,5.183 1.996,8.84 5.12,10.524c3.59,1.935 8.499,1.394 14.462,-0.349c19.505,-5.701 47.078,-25.438 78.05,-55.43c8.816,-8.537 17.883,-17.903 27.092,-28.026c15.616,-46.679 43.509,-114.693 88.892,-209.768c30.982,-64.904 60.183,-108.991 79.367,-128.718c5.636,-5.796 10.6,-9.651 14.586,-11.682c4.324,-2.204 8.082,-2.591 11.027,-1.986c4.029,0.827 7.342,3.291 9.279,8.057c1.469,3.615 2.079,9.482 0.875,17.713c-3.633,24.847 -23.759,77.355 -68.788,161.03c-10.576,19.652 -21.699,38.595 -33.152,56.691c9.41,-8.209 19.114,-12.65 28.2,-14.208c39.225,-6.726 72.415,37.337 45.144,81.385c-16.788,27.114 -34.915,38.739 -50.334,43.264c-12.979,3.808 -24.313,2.646 -32.135,0.691c-0.347,16.745 1.778,50.972 21.891,77.859c3.159,4.222 6.288,6.805 9.854,7.323c6.03,0.874 12.099,-3.487 19.005,-10.404c22.496,-22.534 47.958,-72.994 74.898,-131.507c16.844,-36.584 54.28,-60.05 90.201,-64.82c24.79,-3.291 48.767,2.308 65.29,17.802c1.94,1.819 3.785,3.779 5.519,5.884c27.252,0.364 44.3,-1.399 54.873,-4.146c0.697,-2.115 1.363,-3.996 1.997,-5.665c3.013,-7.935 5.782,-11.917 7.768,-13.797c2.79,-2.64 5.458,-3.218 7.597,-3.201c3.531,0.027 6.759,1.961 8.822,5.272c0.948,1.522 1.588,3.344 1.942,4.536c0.842,1.86 2.035,5.611 0.821,10.234c-0.881,3.353 -3.061,7.541 -8.866,11.394c-1.832,1.216 -4.177,2.446 -7.17,3.626c-2.626,9.067 -5.655,21.357 -9.15,37.882c-7.585,35.867 -8.787,87.386 -1.286,117.782c1.45,5.875 3.2,10.896 5.382,14.694c1.378,2.4 2.709,4.317 4.573,4.992c1.103,0.4 2.29,-0.007 3.66,-0.718c2.995,-1.555 6.188,-4.543 9.792,-8.948c13.138,-16.057 29.495,-48.932 49.825,-105.369c11.737,-32.583 21.392,-55.405 27.292,-63.577c3.31,-4.585 6.863,-6.163 9.12,-6.44c3.965,-0.488 8.97,0.894 10.921,8.592c1.995,7.875 0.166,33.178 -7.764,80.893c-5.419,32.612 -3.443,61.129 3.968,79.832c4.03,10.17 9.339,17.334 16.558,19.023c7.264,1.699 15.399,-2.502 24.696,-12.106c17.4,-17.973 36.563,-53.886 55.54,-113.307c13.709,-42.927 19.951,-63.909 22.352,-72.223c-0.179,-1.312 -0.032,-2.664 0.452,-3.931c-0,-0 1.381,-3.31 1.949,-4.16c0.986,-1.478 2.095,-2.222 2.764,-2.606c3.006,-1.728 5.661,-1.269 7.808,-0.115c0.836,0.449 4.807,2.297 4.197,8.107c5.182,4.319 20.223,12.608 55.842,7.044c45.218,-7.063 57.65,-15.378 57.65,-15.378l5.516,13.785c2.175,-0 4.256,-0.885 5.764,-2.452c1.501,-1.559 2.305,-3.659 2.232,-5.821c0.065,1.824 2.788,81.918 -16.895,139.121c-0.25,0.729 -0.505,1.454 -0.763,2.175c19.99,-11.076 40.995,-27.581 62.237,-51.703c12.383,-35.785 28.855,-80.932 49.998,-136.794c30.945,-81.76 54.524,-133.444 70.095,-160.619c7.33,-12.792 13.236,-20.504 17.3,-23.88c5.052,-4.195 9.531,-4.068 12.507,-2.857c2.493,1.014 4.898,3.086 6.218,6.982c1.644,4.853 1.192,16.368 -2.774,33.452c-8.132,35.026 -29.877,97.004 -66.444,175.066c-23.697,50.59 -48.366,88.492 -72.809,116.785c-12.112,35.11 -20.116,60.811 -24.587,78.49c-1.234,4.875 -2.109,9.52 -2.723,13.453c0.07,-0.085 0.139,-0.17 0.208,-0.255c12.815,-15.808 32.631,-47.286 56.489,-87.202c33.898,-56.711 68.718,-87.782 96.749,-101.333c20.758,-10.035 38.355,-10.674 50.253,-5.72c20.992,8.741 28.567,35.658 4.793,68.658c-39.975,55.486 -85.386,58.818 -104.893,57.217c0.766,9.299 4.734,27.489 21.273,54.918c14.884,24.684 50.364,43.149 86.503,29.442c21.752,-8.25 43.42,-27.877 61.614,-63.559c2.648,-5.883 5.517,-12.129 8.605,-18.747c0.014,-0.035 0.028,-0.069 0.042,-0.104c26.333,-63.747 48.841,-110.882 54.516,-120.679c1.74,-3.002 3.426,-4.302 3.947,-4.627c1.486,-0.925 2.853,-1.175 3.934,-1.222c2.95,-0.13 5.321,1.003 7.033,3.554c0.486,0.724 2.082,3.061 1.024,7.109c-1.256,4.804 -14.878,36.354 -47.735,105.234c-2.802,5.873 -5.459,11.484 -7.971,16.837c-3.064,7.411 -6.263,14.316 -9.577,20.741c-10.971,24.24 -17.919,41.684 -20.597,53.055c-0.544,2.31 -0.775,4.837 -0.873,6.574c1.632,-0.475 3.502,-1.259 5.629,-2.297c29.559,-14.431 97.645,-72.551 209.057,-156.639c3.524,-2.66 8.545,-1.958 11.205,1.566c2.659,3.524 1.958,8.545 -1.566,11.205c-112.717,85.073 -181.771,143.646 -211.676,158.246c-5.432,2.652 -9.893,3.997 -13.299,4.276c-3.92,0.321 -7.007,-0.581 -9.395,-2.165c-3.608,-2.395 -6.337,-6.827 -6.149,-14.249c0.071,-2.788 0.636,-6.286 1.695,-10.518c-11.056,10.168 -22.485,17.082 -33.789,21.37c-44.246,16.781 -87.656,-5.919 -105.879,-36.141c-29.901,-49.591 -23.034,-74.306 -23.034,-74.306c0.508,-2.09 1.836,-3.888 3.686,-4.987c1.849,-1.099 4.063,-1.407 6.142,-0.855c0,0 52.375,13.097 97.546,-49.602c8.397,-11.655 12.169,-22.128 11.628,-30.594c-0.421,-6.575 -3.831,-11.542 -9.59,-13.94c-8.826,-3.675 -21.738,-2.091 -37.138,5.354c-26.2,12.665 -58.297,42.132 -89.979,95.137c-23.882,39.954 -43.858,71.592 -56.966,88.039c-7.016,8.804 -12.955,13.586 -16.547,14.733c-3.208,1.024 -5.926,0.603 -8.167,-0.55c-2.53,-1.301 -5.136,-3.956 -5.94,-9.154c-0.534,-3.455 -0.263,-9.154 1.272,-17.298c2.436,-12.922 8.072,-33.142 17.459,-61.943c-21.049,19.09 -41.607,31.697 -60.88,39.864c-8.45,14.825 -19.303,26.242 -32.885,31.912c-32.62,13.615 -54.963,15.938 -69.591,13.193c-17.819,-3.345 -25.925,-13.841 -28.437,-23.883c-2.238,-8.943 0.146,-17.85 4.577,-23.077c4.009,-4.732 9.554,-6.955 15.692,-5.652c18.516,3.933 55.199,11.829 99.347,-5.181c6.181,-12.347 10.701,-26.93 14.056,-42.028c8.163,-36.736 9.373,-76.525 9.398,-96.254c-9.729,3.736 -25.996,8.333 -52.872,12.531c-33.066,5.165 -52.183,-0.357 -62.753,-6.489c-3.491,11.674 -9.553,31.226 -19.839,63.432c-20.071,62.845 -40.882,100.559 -59.285,119.568c-14.583,15.063 -28.442,19.222 -39.837,16.556c-11.437,-2.675 -21.403,-12.596 -27.788,-28.707c-8.204,-20.706 -10.876,-52.248 -4.876,-88.35c3.45,-20.762 5.435,-38.513 6.568,-51.457c-4.36,10.337 -9.499,23.927 -15.301,40.035c-25.01,69.426 -45.025,104.687 -59.807,117.813c-9.125,8.104 -17.304,9.26 -23.976,6.841c-4.063,-1.472 -7.837,-4.451 -11.047,-9.001c-3.655,-5.178 -6.718,-12.689 -8.989,-21.894c-7.956,-32.239 -6.879,-86.884 1.166,-124.925c2.533,-11.974 4.845,-21.822 6.947,-29.897c-9.972,1.712 -23.063,2.886 -40.224,3.064c6.881,15.947 9.093,36.968 4.016,63.692c-11.691,61.538 -38.337,95.886 -67.8,111.513c-56.381,29.903 -124.236,-7.575 -133.093,-61.472c-13.15,23.595 -25.722,42.512 -37.411,54.22c-11.436,11.455 -22.639,16.382 -32.625,14.934c-7.108,-1.031 -14.071,-5.156 -20.368,-13.573c-31.367,-41.929 -24.344,-99.565 -24.344,-99.565c0.327,-2.642 1.948,-4.948 4.322,-6.152c2.375,-1.204 5.193,-1.147 7.518,0.151c-0,0 13.42,7.254 31.054,2.079c12.767,-3.746 27.334,-13.882 41.235,-36.334c18.769,-30.314 -1.841,-61.821 -28.836,-57.193c-20.247,3.472 -41.719,25.623 -55.141,76.525c-15.227,57.751 -47.389,108.971 -66.678,122.446c-7.151,4.996 -13.566,5.586 -18.124,3.637c-4.544,-1.943 -8.858,-6.949 -9.743,-17.007c-0.784,-8.917 0.967,-23.442 6.484,-44.635c-10.216,10.181 -20.137,19.317 -29.605,27.31c-23.758,20.056 -44.886,32.978 -60.837,37.64c-10.947,3.199 -19.95,2.628 -26.542,-0.924c-7.06,-3.806 -12.084,-11.076 -13.424,-22.791c-2.02,-17.662 4.915,-47.884 24.919,-92.448c13.88,-30.92 27.599,-52.088 38.892,-66.248c-14.799,3.288 -34.845,6.322 -61.215,7.719c-42.12,2.231 -63.131,-5.393 -73.589,-13.118c-5.386,16.058 -16.797,42.555 -40.531,84.282c-30.389,53.428 -57.649,85.474 -80.508,101.773c-17.008,12.128 -32.069,15.919 -44.587,14.054c-19.134,-2.851 -33.543,-19.012 -40.654,-43.8c-9.522,-33.194 -6.173,-82.333 13.665,-129.026c8.34,-19.629 10.796,-31.289 10.379,-38.312c-0.083,-1.398 -0.512,-2.797 -0.786,-3.567c-9.012,1.709 -44.035,9.319 -95.443,32.554c-9.166,25.845 -19.191,53.637 -30.127,83.427c-47.621,129.729 -126.954,221.611 -198.692,273.999c-49.024,35.802 -94.815,53.125 -125.089,52.363c-14.639,-0.369 -26.047,-4.86 -33.513,-12.747c-7.573,-8.001 -11.45,-19.717 -9.721,-35.435c2.924,-26.586 22.841,-66.562 67.515,-119.715c119.873,-142.625 236.266,-216.265 316.838,-253.674c26.997,-76.3 46.286,-135.011 59.223,-177.596c-43.103,82.795 -141.495,130.88 -210.9,133.768c-32.861,1.367 -59.335,-7.587 -72.285,-26.005c-8.925,-12.694 -11.977,-30.099 -5.8,-52.611c9.616,-35.044 17.988,-62.969 24.883,-84.704c-25.317,35.302 -64.891,82.675 -121.888,129.541c-23.068,18.967 -55.64,30.012 -84.867,28.988c-20.371,-0.714 -39.104,-7.263 -52.392,-20.5c-9.771,-9.733 -16.781,-23.336 -19.013,-41.371c-16.873,10.53 -32.814,20.024 -47.249,27.85c-23.255,12.608 -42.842,20.88 -56.408,22.756c-9.073,1.254 -16.056,-0.289 -20.783,-3.843c-4.853,-3.648 -8.014,-9.56 -8.021,-18.568c-0.007,-9.479 3.812,-23.551 12.755,-42.923c24.025,-52.042 36.846,-88.735 40.622,-111.704c1.118,-6.804 1.436,-12.245 0.866,-16.382c-0.285,-2.065 -0.456,-3.685 -1.506,-4.47c-0.714,-0.534 -1.689,-0.103 -2.871,0.199c-3.278,0.837 -7.115,2.913 -11.543,5.972c-15.734,10.868 -37.113,33.412 -61.994,65.913c-42.731,55.818 -76.914,110.337 -91.128,126.889c-3.016,3.513 -5.555,5.646 -7.247,6.565c-3.694,2.007 -6.739,1.42 -8.898,0.309c-2.091,-1.075 -4.391,-3.149 -4.939,-7.429c-0.319,-2.49 0.291,-7.729 2.664,-16.014c4.475,-15.619 15.143,-44.917 33.382,-92.22c12.084,-31.342 20.34,-53.982 25.356,-69.499c-19.052,26.626 -49.147,73.709 -80.3,115.391c-27.254,36.465 -49.753,58.076 -65.17,64.71c-9.543,4.106 -17.286,3.305 -23.071,-0.814c-5.17,-3.681 -9.256,-10.759 -10.736,-21.957c-1.881,-14.226 0.17,-36.516 6.945,-67.13c-6.807,10.396 -14.319,21.146 -22.572,32.086c-20.462,27.123 -49.166,48.378 -76.67,57.857c-19.487,6.716 -38.441,7.514 -53.906,1.13c-14.45,-5.966 -26.417,-18.39 -32.715,-39.128c-41.381,21.112 -83.68,34.284 -117.474,37.171c-27.86,2.379 -50.241,-2.462 -62.995,-14.169c-12.125,-11.128 -16.909,-28.539 -9.124,-53.392c10.06,-32.115 42.365,-78.597 107.307,-141.466c51.308,-49.671 76.83,-92.882 83.542,-127.981c6.23,-32.577 -4.39,-57.536 -25.388,-72.74c-26.335,-19.068 -67.878,-23.092 -111.749,-9.644c-20.179,6.185 -40.814,16.078 -60.759,29.98c6.582,35.714 3.822,95.101 -26.512,193.579c-92.173,299.227 -145.243,440.536 -171.182,482.91c-5.557,9.078 -10.436,14.163 -14.051,16.205c-3.46,1.954 -6.608,2.152 -9.319,1.446c-3.45,-0.897 -6.96,-3.579 -9.048,-9.23c-2.3,-6.23 -3.199,-18.305 -2.342,-35.095c4.468,-87.539 52.274,-315.014 102.099,-483.709c23.978,-81.181 65.987,-137.517 112.442,-172.838Zm3.485,17.601c-41.603,33.789 -78.817,86.077 -100.582,159.769c-49.446,167.409 -97.031,393.121 -101.465,479.992c-0.523,10.252 -0.454,18.456 0.369,24.248c0.01,0.067 0.02,0.134 0.03,0.201c0.215,-0.26 0.424,-0.523 0.62,-0.785c4.018,-5.371 8.868,-13.939 14.708,-26.027c28.582,-59.158 78.806,-199.238 158.945,-459.399c27.16,-88.172 31.878,-143.409 27.375,-177.999Zm1251.62,457.752c-77.936,38.489 -185.847,110.321 -296.968,242.533c-41.672,49.581 -61.131,86.369 -63.859,111.17c-1.098,9.979 0.629,17.606 5.437,22.686c4.915,5.192 12.658,7.508 22.295,7.751c27.984,0.704 69.935,-16.196 115.251,-49.289c69.772,-50.953 146.792,-140.418 193.108,-266.591c8.833,-24.062 17.069,-46.806 24.736,-68.26Zm800.167,-36.56c2.865,-0.188 5.841,-0.297 8.941,-0.338c14.871,-0.197 32.84,1.136 55.686,2.112c-12.277,-7.116 -27.678,-9.135 -43.389,-7.049c-7.082,0.94 -14.239,2.717 -21.238,5.275Zm-217.266,33.348c-19.382,27.078 -39.153,51.578 -58.359,72.896c-7.984,24.27 -12.435,42.398 -14.155,55.294c-0.743,5.564 -0.961,10.033 -0.655,13.503c0.086,0.981 0.328,2.061 0.549,2.896c0.706,-0.336 1.556,-0.779 2.216,-1.24c17.774,-12.417 46.338,-60.193 60.37,-113.409c2.952,-11.197 6.333,-21.142 10.034,-29.94Zm298.881,-14.963c-0.668,-0.017 -1.341,-0.036 -2.019,-0.056c-30.118,-0.885 -52.546,-2.906 -70.442,-2.668c-16.147,0.214 -28.271,2.196 -39.092,9.51c-15.29,10.333 -27.862,30.482 -45.651,67.564c-29.423,61.336 45.393,117.936 103.952,86.877c26.35,-13.976 49.123,-45.329 59.578,-100.364c5.106,-26.876 2.147,-46.948 -6.326,-60.863Zm391.265,140.864c-38.577,9.519 -70.035,2.985 -87.271,-0.675c-0.181,0.185 -0.603,0.633 -0.799,0.967c-0.46,0.784 -0.78,1.716 -0.976,2.722c-0.33,1.693 -0.297,3.582 0.175,5.468c1.347,5.386 6.309,10.246 15.867,12.04c12.742,2.392 32.061,-0.372 60.476,-12.233c4.62,-1.928 8.773,-4.755 12.528,-8.289Zm130.982,-125.492c13.633,-20.675 27.204,-44.924 40.506,-73.323c35.913,-76.665 57.361,-137.499 65.347,-171.897c1.056,-4.546 1.872,-8.601 2.443,-12.141c-1.048,1.493 -2.115,3.103 -3.142,4.79c-15.223,25.002 -39.451,77.301 -72.097,163.554c-12.662,33.456 -23.64,63.03 -33.057,89.017Zm-864.195,29.877c31.702,-39.309 63.711,-86.424 91.803,-138.626c43.608,-81.034 63.528,-131.701 67.047,-155.763c0.315,-2.155 0.35,-4.474 0.306,-6.267c-2.549,1.666 -5.472,4.242 -8.771,7.634c-18.527,19.051 -46.479,61.779 -76.398,124.457c-33.64,70.472 -57.594,125.855 -73.987,168.565Zm-998.946,-188.313c14.635,-9.446 29.728,-19.403 44.944,-29.501c28.635,-19.002 43.999,-36.256 49.768,-50.475c2.997,-7.387 3.229,-13.61 0.768,-18.264c-3.663,-6.929 -12.632,-9.47 -22.985,-7.893c-19.546,2.977 -43.329,20.618 -58.472,57.891c-7.447,18.331 -11.974,34.351 -14.023,48.242Zm-569.907,20.452c24.091,-13.912 47.314,-30.574 67.562,-49.444c25.95,-24.184 39.399,-43.376 43.722,-57.919c3.123,-10.509 0.73,-17.769 -6.055,-21.178c-10.288,-5.168 -26.911,-3.072 -43.78,4.948c-27.334,12.995 -54.946,42.285 -60.335,88.222c-1.583,13.491 -1.906,25.241 -1.114,35.371Z"/><path d="M713.591,151.807c46.418,32.754 74.856,64.423 94.5,89.174" style="fill:none;stroke:#000;stroke-width:16px;"/><path d="M713.591,251.745c0,-0 107.29,-111.896 158.197,-138.233" style="fill:none;stroke:#000;stroke-width:16px;"/><path d="M3231.85,421.449c36.08,43.882 55.111,81.955 67.495,111.026" style="fill:none;stroke:#000;stroke-width:16px;"/><path d="M3204.62,512.343c0,0 130.08,-84.325 185.668,-98.294" style="fill:none;stroke:#000;stroke-width:16px;"/></g></svg>