<?xml version="1.0" encoding="UTF-8" standalone="no"?><!DOCTYPE svg PUBLIC "-//W3C//DTD SVG 1.1//EN" "http://www.w3.org/Graphics/SVG/1.1/DTD/svg11.dtd"><svg width="100%" height="100%" viewBox="0 0 1074 1074" version="1.1" xmlns="http://www.w3.org/2000/svg" xmlns:xlink="http://www.w3.org/1999/xlink" xml:space="preserve" xmlns:serif="http://www.serif.com/" style="fill-rule:evenodd;clip-rule:evenodd;stroke-linecap:round;stroke-linejoin:round;stroke-miterlimit:1.5;"><rect id="initialsThicc" x="0" y="0.025" width="1073.85" height="1073.85" style="fill:none;"/><g id="initialsThicc1" serif:id="initialsThicc"><circle cx="537" cy="537" r="537"/><circle cx="537" cy="537" r="500" style="fill:#fff;"/><circle id="gradient" cx="537" cy="537" r="500" style="fill:url(#_Radial1);"/><g><path d="M443.478,366.81c-0,0 -39.998,142.478 -152.66,271.376c-112.663,128.897 -215.76,201.589 -49.061,-146.24c260.34,-543.219 448.324,-217.486 238.734,-5.795c-209.59,211.691 -80.703,130.012 -39.809,148.376c40.894,18.364 6.333,93.433 53.782,45.75" style="fill:none;stroke:#000;stroke-width:28px;"/><path d="M672.591,378.376c-0,0 -35.268,14.836 -97.961,102.14c-62.691,87.305 -77.656,175.251 130.999,37.728c109.729,-72.321 190.748,-150.873 194.796,-149.677c3.649,1.078 -34.435,110.495 -163.018,239.301c-298.617,299.135 -391.517,180.576 -60.349,-3.654c331.589,-184.463 348.597,-157.144 218.718,-60.435" style="fill:none;stroke:#000;stroke-width:28px;"/></g></g><defs><radialGradient id="_Radial1" cx="0" cy="0" r="1" gradientUnits="userSpaceOnUse" gradientTransform="matrix(528.079,-579.335,579.335,528.079,537,579.335)"><stop offset="0" style="stop-color:#fff;stop-opacity:0.45"/><stop offset="0.45" style="stop-color:#f2f2f2;stop-opacity:0.45"/><stop offset="0.58" style="stop-color:#cfcfcf;stop-opacity:0.45"/><stop offset="0.69" style="stop-color:#a7a7a7;stop-opacity:0.45"/><stop offset="1" style="stop-color:#e3e3e3;stop-opacity:0.45"/></radialGradient></defs></svg>