<?xml version="1.0" encoding="UTF-8" standalone="no"?><!DOCTYPE svg PUBLIC "-//W3C//DTD SVG 1.1//EN" "http://www.w3.org/Graphics/SVG/1.1/DTD/svg11.dtd"><svg width="100%" height="100%" viewBox="0 0 1074 1074" version="1.1" xmlns="http://www.w3.org/2000/svg" xmlns:xlink="http://www.w3.org/1999/xlink" xml:space="preserve" xmlns:serif="http://www.serif.com/" style="fill-rule:evenodd;clip-rule:evenodd;stroke-linecap:round;stroke-linejoin:round;stroke-miterlimit:1.5;"><rect id="initialsThicc" x="0" y="0.025" width="1073.85" height="1073.85" style="fill:none;"/><g id="initialsThicc1" serif:id="initialsThicc"><g><path d="M645.834,386.58c0,-0 -42.942,18.064 -119.278,124.367c-76.334,106.304 -94.555,213.388 159.507,45.937c133.606,-88.058 232.257,-183.704 237.185,-182.248c4.444,1.313 -41.927,134.541 -198.492,291.377c-363.601,364.23 -476.717,219.871 -73.482,-4.45c403.747,-224.604 424.457,-191.34 266.315,-73.586" style="fill:none;stroke:#000;stroke-width:34.09px;"/><path d="M327.138,317.775c21.804,23.711 26.698,68.958 17.085,113.886c-14.435,67.462 -79.183,169.098 -163.241,271.267c-167.645,203.765 -122.413,-28.064 -59.737,-178.064c253.238,-606.07 545.886,-264.814 290.686,-7.056c-255.2,257.758 -98.265,158.305 -48.472,180.665c49.793,22.36 7.711,113.766 65.486,55.705" style="fill:none;stroke:#000;stroke-width:34.09px;"/></g></g></svg>