<?xml version="1.0" encoding="UTF-8" standalone="no"?><!DOCTYPE svg PUBLIC "-//W3C//DTD SVG 1.1//EN" "http://www.w3.org/Graphics/SVG/1.1/DTD/svg11.dtd"><svg width="100%" height="100%" viewBox="0 0 14423 4475" version="1.1" xmlns="http://www.w3.org/2000/svg" xmlns:xlink="http://www.w3.org/1999/xlink" xml:space="preserve" xmlns:serif="http://www.serif.com/" style="fill-rule:evenodd;clip-rule:evenodd;stroke-linecap:round;stroke-linejoin:round;stroke-miterlimit:1.5;"><rect id="full" x="0" y="0" width="14422.1" height="4474.38" style="fill:none;"/><g id="full1" serif:id="full"><path d="M1219.93,518.074c-1.721,-5.556 -3.515,-10.925 -5.374,-16.11c-39.913,-111.358 -109.021,-127.181 -109.021,-127.181c-18.114,-3.215 -30.21,-20.532 -26.994,-38.646c3.215,-18.114 20.532,-30.21 38.646,-26.994c0,-0 104.656,14.798 159.832,168.918c131.58,-85.952 268.729,-133.556 394.547,-147.576c148.474,-16.545 281.894,13.568 375.247,81.161c106.984,77.464 163.908,203.633 132.167,369.604c-29.73,155.454 -139.964,348.644 -367.202,568.63c-258.633,250.378 -389.802,433.574 -429.866,561.473c-22.228,70.96 -15.139,121.651 19.479,153.426c21.414,19.656 51.921,31.751 88.734,38.316c62.38,11.125 141.586,5.827 229.521,-12.859c115.911,-24.631 246.448,-72.616 374.13,-139.465c-7.375,-53.165 -7.652,-116.002 0.979,-189.565c30.05,-256.102 206.466,-402.564 354.564,-444.982c68.839,-19.717 132.19,-16.729 175.388,4.97c44.915,22.562 71.921,63.695 67.392,123.932c-5.349,71.129 -62.233,177.378 -208.809,313.982c-94.184,87.776 -203.193,164.484 -315.817,227.333c17.97,70.046 53.914,112.943 102.545,133.019c50.926,21.023 113.274,16.001 177.447,-6.115c103.453,-35.653 210.993,-116.172 287.959,-218.192c93.554,-124.005 163.579,-241.895 213.153,-339.147c47.985,-157.778 81.555,-235.253 94.701,-253.941c13.979,-19.872 30.898,-19.174 37.57,-18.071c10.797,1.785 26.328,8.311 28.986,31.535c1.135,9.925 -5.366,45.654 -25.425,99.538c-15.876,42.645 -39.913,98.901 -73.048,164.487c-6.828,22.019 -13.826,45.409 -20.899,70.109c-50.669,176.938 -73.963,305.676 -72.896,388.406c0.313,24.298 2.684,44.119 7.542,59.457c3.018,9.531 6.367,16.931 12.048,20.976c5.261,3.745 12.073,2.68 20.095,0.428c10.329,-2.899 21.696,-8.557 34.241,-16.527c56.936,-36.172 131.614,-115.783 221.268,-235.739c155.296,-207.785 304.33,-447.72 375.912,-535.712c22.111,-27.18 40.985,-41.531 51.284,-44.825c11.917,-3.81 21.895,-2.018 29.996,2.113c9.659,4.925 22.733,16.973 22.005,43.843c-1.05,38.774 -39.8,161.236 -134.661,407.261c-52.09,135.096 -89.227,233.892 -113.057,302.618c73.344,-104.288 184.698,-271.972 315.28,-442.545c128.611,-168 237.727,-274.383 308.824,-310.38c44.592,-22.577 79.59,-19.892 102.402,-2.834c21.041,15.733 36.367,48.76 33.821,103.349c-4.352,93.305 -58.144,266.752 -179.812,530.3c-30.22,65.461 -45.628,113.35 -46.926,146.84c-0.513,13.237 -0.084,23.014 6.736,28.142c8.398,6.313 21.287,5.489 37.405,3.26c51.22,-7.082 124.58,-39.78 212.388,-87.386c68.37,-37.067 144.922,-83.227 226.077,-134.513c3.613,-75.459 24.179,-165.338 67.171,-271.158c62.187,-153.066 157.21,-235.768 242.454,-267.974c63.069,-23.829 121.97,-20.489 163.569,0.936c46.627,24.014 74.624,69.78 67.735,131.641c-8.298,74.511 -74.793,180.318 -246.293,294.125c-78.065,51.804 -155.369,102.712 -229.35,149.915c2.414,72.886 25.627,126.965 63.551,164.743c43.867,43.696 106.341,63.666 173.587,66.022c106.406,3.728 224.954,-36.6 308.936,-105.653c378.474,-311.2 568.086,-627.782 624.707,-727.104c11.583,-20.318 18.514,-32.493 20.68,-35.329c8.495,-11.121 17.966,-12.597 21.525,-13.196c9.524,-1.605 17.472,0.7 24.185,5.209c4.994,3.354 9.841,8.322 12.749,16.245c0.623,1.699 4.232,12.182 -1.957,29.686c-12.767,36.105 -82.922,212.677 -191.069,606.805c-19.123,69.692 -13.217,123.928 14.413,163.226c43.271,61.543 134.074,84.66 243.879,80.091c297.884,-12.395 733.653,-237.722 866.117,-623.184c35.905,-104.479 64.777,-177.128 83.655,-215.112c11.359,-22.856 21.681,-35.767 27.635,-40.4c9.02,-7.02 17.684,-8.452 24.449,-8.215c8.803,0.309 16.753,3.46 23.556,10.109c4.199,4.104 9.118,10.813 11.105,21.821c1.146,6.351 1.415,17.389 -0.566,33.191c-11.656,92.97 -102.804,422.318 -317.466,1033.85c226.743,-95.991 366.769,-116.992 366.769,-116.992c1.518,-0.231 3.05,-0.357 4.586,-0.377c-0,0 23.315,-1.684 43.483,19.785c12.473,13.279 27.197,39.241 21.045,93.078c-3.968,34.723 -17.024,84.536 -47.252,155.685c-75.858,178.545 -90.627,366.231 -54.215,493.156c21.107,73.578 58.338,126.483 115.133,134.945c38.839,5.787 84.481,-9.274 137.249,-46.9c90.197,-64.315 196.298,-191.915 316.209,-402.734c98.803,-173.709 144.593,-279.879 165.066,-341.491c7.361,-22.151 11.161,-40.204 12.954,-50.431c-1.066,-7.329 -0.877,-13.089 -0.441,-16.531c4.651,-36.732 39.286,-32.655 48.22,-28.506c3.956,1.837 19.103,8.968 20.214,32.758c0.08,1.709 0.06,3.97 -0.132,6.837c3.564,7.042 12.17,20.852 28.716,31.164c39.688,24.734 115.013,43.502 255.324,36.069c232.876,-12.336 343.068,-59.121 363.118,-68.533c3.096,-2.042 5.31,-3.338 6.553,-3.993c21.061,-11.103 35.463,1.387 37.178,2.724c9.508,7.414 15.015,17.754 12.279,32.421c-0.403,2.162 -1.406,12.614 -14.087,21.596c-0.98,0.694 -3.14,2.04 -6.584,3.908c-17.451,13.061 -131.13,104.642 -241.098,349.625c-76.025,169.364 -106.093,283.199 -98.415,350.323c2.469,21.596 8.314,36.834 21.331,43.85c14.961,8.063 35.411,5.807 60.258,-1.455c81.272,-23.753 196.157,-105.991 325.209,-230.96c36.732,-35.569 74.512,-74.593 112.883,-116.775c65.067,-194.496 181.288,-477.886 370.386,-874.031c129.09,-270.433 250.76,-454.13 330.694,-536.328c23.481,-24.147 44.167,-40.209 60.776,-48.674c18.017,-9.182 33.675,-10.795 45.943,-8.275c16.791,3.448 30.594,13.712 38.664,33.571c6.121,15.062 8.662,39.51 3.647,73.805c-15.137,103.527 -98.996,322.311 -286.618,670.957c-44.066,81.885 -90.412,160.814 -138.132,236.213c39.205,-34.205 79.639,-52.709 117.499,-59.201c163.436,-28.023 301.729,155.573 188.098,339.104c-69.947,112.976 -145.477,161.415 -209.723,180.268c-54.079,15.869 -101.303,11.024 -133.896,2.88c-1.445,69.771 7.406,212.383 91.215,324.412c13.159,17.591 26.199,28.356 41.055,30.511c25.125,3.644 50.414,-14.529 79.187,-43.349c93.736,-93.891 199.828,-304.142 312.077,-547.944c70.183,-152.436 226.165,-250.211 375.836,-270.083c103.293,-13.714 203.198,9.614 272.043,74.172c8.085,7.58 15.769,15.749 22.996,24.518c113.55,1.519 184.583,-5.827 228.636,-17.274c2.907,-8.811 5.68,-16.649 8.322,-23.607c12.552,-33.058 24.091,-49.654 32.367,-57.484c11.625,-11 22.74,-13.408 31.652,-13.34c14.713,0.112 28.163,8.172 36.759,21.966c3.953,6.344 6.618,13.935 8.094,18.9c3.509,7.753 8.479,23.383 3.42,42.641c-3.671,13.975 -12.753,31.424 -36.941,47.478c-7.634,5.067 -17.407,10.192 -29.876,15.107c-10.941,37.782 -23.563,88.987 -38.125,157.844c-31.606,149.444 -36.614,364.105 -5.359,490.756c6.04,24.479 13.334,45.399 22.424,61.228c5.742,9.998 11.289,17.983 19.056,20.799c4.594,1.666 9.541,-0.029 15.249,-2.992c12.481,-6.48 25.783,-18.929 40.803,-37.286c54.738,-66.903 122.892,-203.883 207.6,-439.035c48.905,-135.763 89.136,-230.856 113.717,-264.903c13.795,-19.108 28.597,-25.68 38.003,-26.837c16.518,-2.032 37.375,3.729 45.501,35.804c8.312,32.812 0.693,138.24 -32.346,337.054c-22.582,135.883 -14.349,254.7 16.531,332.633c16.791,42.374 38.912,72.224 68.991,79.261c30.268,7.08 64.164,-10.426 102.902,-50.44c72.5,-74.89 152.343,-224.526 231.415,-472.114c57.123,-178.862 83.128,-266.288 93.134,-300.928c-0.746,-5.467 -0.132,-11.101 1.881,-16.381c0,0 5.757,-13.79 8.121,-17.333c4.111,-6.159 8.733,-9.257 11.519,-10.859c12.524,-7.2 23.588,-5.289 32.535,-0.48c3.482,1.871 20.029,9.571 17.487,33.781c21.588,17.995 84.26,52.533 232.672,29.351c188.408,-29.429 240.211,-64.075 240.211,-64.075l22.984,57.435c9.06,0 17.73,-3.688 24.014,-10.215c6.253,-6.496 9.607,-15.246 9.3,-24.254c0.27,7.599 11.619,341.324 -70.394,579.669c-1.045,3.037 -2.105,6.058 -3.182,9.062c83.294,-46.15 170.816,-114.92 259.321,-215.427c51.596,-149.103 120.232,-337.219 208.327,-569.977c128.938,-340.665 227.181,-556.015 292.063,-669.243c30.543,-53.3 55.15,-85.435 72.084,-99.5c21.049,-17.482 39.71,-16.949 52.109,-11.907c10.391,4.227 20.411,12.859 25.911,29.093c6.849,20.22 4.967,68.199 -11.561,139.384c-33.883,145.94 -124.484,404.182 -276.847,729.443c-98.74,210.788 -201.524,368.716 -303.373,486.604c-50.465,146.289 -83.815,253.379 -102.446,327.039c-5.139,20.315 -8.785,39.669 -11.344,56.057c0.291,-0.354 0.58,-0.708 0.868,-1.063c53.395,-65.869 135.959,-197.027 235.37,-363.343c141.239,-236.296 286.323,-365.759 403.12,-422.221c86.491,-41.812 159.813,-44.473 209.385,-23.832c87.471,36.42 119.033,148.576 19.974,286.072c-166.563,231.195 -355.774,245.076 -437.056,238.406c3.194,38.748 19.726,114.537 88.639,228.826c62.014,102.849 209.851,179.785 360.427,122.676c90.635,-34.376 180.919,-116.157 256.727,-264.832c11.035,-24.512 22.986,-50.538 35.852,-78.112c0.059,-0.144 0.119,-0.287 0.178,-0.431c109.721,-265.615 203.504,-462.011 227.15,-502.83c7.248,-12.511 14.274,-17.928 16.443,-19.279c6.192,-3.857 11.887,-4.898 16.394,-5.095c12.29,-0.538 22.169,4.183 29.304,14.81c2.026,3.018 8.675,12.755 4.265,29.622c-5.233,20.018 -61.991,151.474 -198.895,438.476c-11.673,24.47 -22.746,47.847 -33.211,70.152c-12.769,30.879 -26.099,59.65 -39.905,86.423c-45.714,101 -74.661,173.682 -85.821,221.062c-2.266,9.622 -3.229,20.152 -3.639,27.389c6.801,-1.978 14.592,-5.243 23.456,-9.571c123.164,-60.128 406.854,-302.294 871.069,-652.661c14.684,-11.083 35.604,-8.159 46.687,6.525c11.083,14.684 8.159,35.604 -6.525,46.687c-469.653,354.471 -757.377,598.525 -881.984,659.358c-22.633,11.05 -41.219,16.653 -55.411,17.816c-16.331,1.337 -29.195,-2.419 -39.145,-9.021c-15.034,-9.976 -26.403,-28.445 -25.619,-59.371c0.295,-11.616 2.65,-26.188 7.06,-43.822c-46.066,42.364 -93.685,71.174 -140.788,89.039c-184.359,69.922 -365.233,-24.662 -441.161,-150.586c-124.59,-206.628 -95.977,-309.608 -95.977,-309.608c2.118,-8.71 7.653,-16.2 15.359,-20.78c7.705,-4.58 16.93,-5.864 25.593,-3.562c0,0 218.23,54.57 406.443,-206.675c34.988,-48.565 50.702,-92.202 48.446,-127.474c-1.752,-27.396 -15.958,-48.093 -39.955,-58.085c-36.777,-15.313 -90.576,-8.711 -154.743,22.309c-109.165,52.773 -242.902,175.549 -374.913,396.404c-99.506,166.476 -182.742,298.299 -237.357,366.83c-29.236,36.685 -53.978,56.609 -68.946,61.387c-13.367,4.267 -24.693,2.513 -34.029,-2.29c-10.542,-5.423 -21.402,-16.486 -24.749,-38.143c-2.225,-14.398 -1.099,-38.14 5.299,-72.076c10.151,-53.84 33.634,-138.089 72.747,-258.094c-87.708,79.54 -173.365,132.07 -253.667,166.097c-35.21,61.774 -80.431,109.345 -137.022,132.966c-135.915,56.733 -229.013,66.412 -289.962,54.972c-74.248,-13.936 -108.021,-57.67 -118.488,-99.51c-9.323,-37.265 0.608,-74.374 19.069,-96.158c16.706,-19.713 39.809,-28.978 65.384,-23.546c77.15,16.384 229.997,49.286 413.947,-21.589c25.754,-51.447 44.588,-112.208 58.567,-175.119c34.011,-153.065 39.053,-318.854 39.158,-401.057c-40.536,15.569 -108.315,34.72 -220.3,52.212c-137.775,21.521 -217.428,-1.486 -261.472,-27.036c-14.543,48.641 -39.803,130.107 -82.66,264.299c-83.629,261.856 -170.345,418.996 -247.023,498.202c-60.76,62.763 -118.51,80.09 -165.985,68.984c-47.654,-11.148 -89.183,-52.485 -115.784,-119.616c-34.185,-86.272 -45.316,-217.698 -20.318,-368.121c14.377,-86.512 22.644,-160.473 27.366,-214.407c-18.168,43.07 -39.578,99.696 -63.755,166.812c-104.205,289.275 -187.603,436.198 -249.194,490.891c-38.022,33.762 -72.1,38.582 -99.901,28.503c-16.926,-6.136 -32.651,-18.548 -46.029,-37.505c-15.227,-21.577 -27.99,-52.871 -37.454,-91.224c-33.15,-134.331 -28.662,-362.017 4.86,-520.524c10.552,-49.892 20.187,-90.922 28.946,-124.569c-41.552,7.133 -96.099,12.024 -167.601,12.767c28.669,66.444 37.889,154.033 16.734,265.385c-48.712,256.408 -159.736,399.522 -282.5,464.634c-234.92,124.598 -517.649,-31.559 -554.557,-256.13c-54.79,98.311 -107.173,177.129 -155.879,225.915c-47.649,47.728 -94.328,68.259 -135.936,62.224c-29.618,-4.296 -58.631,-21.481 -84.867,-56.552c-130.696,-174.705 -101.434,-414.854 -101.434,-414.854c1.364,-11.01 8.116,-20.619 18.011,-25.634c9.896,-5.016 21.638,-4.779 31.323,0.63c0,0 55.915,30.223 129.391,8.662c53.199,-15.611 113.894,-57.844 171.813,-151.393c78.204,-126.31 -7.669,-257.588 -120.149,-238.302c-84.362,14.465 -173.83,106.762 -229.753,318.852c-63.447,240.629 -197.457,454.045 -277.825,510.193c-29.796,20.816 -56.527,23.273 -75.517,15.154c-18.935,-8.095 -36.911,-28.956 -40.597,-70.865c-3.267,-37.151 4.027,-97.675 27.017,-185.976c-42.566,42.417 -83.904,80.487 -123.354,113.789c-98.992,83.567 -187.028,137.409 -253.487,156.833c-45.615,13.331 -83.125,10.953 -110.591,-3.85c-29.42,-15.857 -50.353,-46.151 -55.935,-94.959c-8.417,-73.592 20.479,-199.517 103.829,-385.2c57.833,-128.837 114.997,-217.037 162.05,-276.035c-61.664,13.699 -145.185,26.341 -255.061,32.162c-175.501,9.297 -263.048,-22.471 -306.623,-54.656c-22.442,66.906 -69.987,177.312 -168.876,351.173c-126.622,222.618 -240.208,356.141 -335.453,424.054c-70.868,50.532 -133.618,66.331 -185.779,58.559c-79.723,-11.879 -139.762,-79.219 -169.39,-182.5c-39.677,-138.307 -25.722,-343.054 56.938,-537.609c34.749,-81.788 44.983,-130.373 43.246,-159.633c-0.346,-5.826 -2.135,-11.654 -3.277,-14.863c-37.551,7.12 -183.48,38.829 -397.677,135.641c-38.192,107.688 -79.964,223.486 -125.53,347.614c-198.424,540.536 -528.975,923.378 -827.883,1141.66c-204.269,149.173 -395.066,221.354 -521.207,218.177c-60.996,-1.537 -108.528,-20.248 -139.636,-53.112c-31.555,-33.335 -47.709,-82.154 -40.505,-147.644c12.185,-110.778 95.169,-277.341 281.311,-498.812c499.473,-594.271 984.444,-901.105 1320.16,-1056.97c112.488,-317.918 192.858,-562.548 246.761,-739.984c-179.594,344.977 -589.564,545.333 -878.751,557.366c-136.921,5.697 -247.229,-31.614 -301.186,-108.356c-37.187,-52.89 -49.905,-125.413 -24.167,-219.211c40.066,-146.015 74.95,-262.371 103.68,-352.934c-105.49,147.091 -270.38,344.478 -507.869,539.753c-96.115,79.03 -231.833,125.051 -353.611,120.785c-84.879,-2.974 -162.932,-30.262 -218.302,-85.417c-40.712,-40.554 -69.921,-97.234 -79.217,-172.377c-70.304,43.873 -136.728,83.43 -196.873,116.038c-96.898,52.534 -178.51,87.003 -235.032,94.818c-37.805,5.226 -66.9,-1.204 -86.596,-16.011c-20.222,-15.202 -33.395,-39.835 -33.421,-77.369c-0.028,-39.493 15.881,-98.13 53.143,-178.844c100.107,-216.843 153.528,-369.731 169.259,-465.434c4.659,-28.35 5.985,-51.02 3.609,-68.26c-1.186,-8.601 -1.899,-15.351 -6.273,-18.622c-2.976,-2.225 -7.038,-0.431 -11.964,0.827c-13.657,3.488 -29.644,12.137 -48.096,24.883c-65.557,45.284 -154.638,139.22 -258.307,274.638c-178.046,232.575 -320.474,459.738 -379.7,528.706c-12.568,14.635 -23.148,23.524 -30.198,27.354c-15.389,8.36 -28.077,5.915 -37.073,1.288c-8.715,-4.481 -18.295,-13.122 -20.579,-30.955c-1.329,-10.377 1.21,-32.207 11.1,-66.727c18.643,-65.078 63.094,-187.154 139.089,-384.247c50.354,-130.595 84.753,-224.926 105.65,-289.582c-79.381,110.943 -204.779,307.121 -334.583,480.796c-113.556,151.937 -207.302,241.985 -271.541,269.626c-39.763,17.109 -72.024,13.773 -96.13,-3.391c-21.54,-15.336 -38.564,-44.831 -44.733,-91.488c-7.838,-59.274 0.709,-152.149 28.938,-279.709c-28.36,43.319 -59.66,88.109 -94.05,133.692c-85.258,113.011 -204.859,201.576 -319.457,241.07c-81.198,27.983 -160.171,31.308 -224.608,4.708c-60.209,-24.856 -110.071,-76.624 -136.314,-163.031c-172.42,87.966 -348.664,142.85 -489.473,154.876c-116.086,9.915 -209.341,-10.257 -262.482,-59.034c-50.518,-46.37 -70.454,-118.915 -38.017,-222.468c41.917,-133.814 176.522,-327.487 447.115,-589.444c213.784,-206.96 320.123,-387.004 348.092,-533.254c25.959,-135.734 -18.291,-239.732 -105.785,-303.083c-109.729,-79.45 -282.824,-96.215 -465.62,-40.182c-81.789,25.071 -165.377,64.76 -246.368,120.221c2.305,11.188 4.374,22.901 6.179,35.164c22.169,150.64 3.579,391.829 -123.648,776.758c-303.26,917.521 -499.757,1428.37 -615.75,1656.34c-37.066,72.848 -67.043,118.183 -89.476,140.335c-15.621,15.427 -30.166,22.169 -41.746,23.981c-19.338,3.027 -36.078,-3.421 -48.995,-21.608c-12.542,-17.658 -21.207,-57.974 -20.438,-117.956c3.659,-285.609 176.091,-1092.5 383.935,-1796.21c100.874,-341.53 278.345,-577.526 474.142,-724.411Zm16.077,71.807c-176.245,140.573 -334.342,360.201 -426.283,671.489c-205.785,696.731 -377.587,1495.4 -381.21,1778.18c-0.293,22.819 0.516,41.998 2.673,57.148c0.186,1.309 0.423,2.656 0.692,4.006c0.568,-0.625 1.122,-1.255 1.652,-1.884c18.548,-21.986 41.418,-59.8 69.56,-115.108c115.331,-226.665 310.338,-734.739 611.868,-1647.03c122.954,-372 142.656,-603.195 121.048,-746.802Zm5207.9,1913.09c-324.732,160.37 -774.361,459.672 -1237.37,1010.55c-173.634,206.59 -254.713,359.873 -266.079,463.208c-4.574,41.579 2.62,73.36 22.654,94.525c20.479,21.635 52.743,31.284 92.898,32.295c116.599,2.937 291.396,-67.482 480.212,-205.37c290.717,-212.302 611.63,-585.073 804.617,-1110.8c36.803,-100.258 71.121,-195.023 103.064,-284.415Zm3334.03,-152.335c11.939,-0.783 24.339,-1.235 37.256,-1.406c61.961,-0.823 136.833,4.731 232.023,8.8c-51.153,-29.651 -115.324,-38.063 -180.788,-29.371c-29.509,3.918 -59.327,11.318 -88.491,21.977Zm-905.274,138.953c-80.76,112.825 -163.137,214.908 -243.165,303.734c-33.263,101.125 -51.81,176.655 -58.979,230.388c-3.093,23.184 -4.001,41.807 -2.729,56.264c0.359,4.086 1.37,8.588 2.29,12.067c2.942,-1.401 6.482,-3.245 9.232,-5.167c74.058,-51.739 193.077,-250.804 251.543,-472.539c12.301,-46.653 26.386,-88.091 41.808,-124.747Zm1245.34,-62.347c-2.784,-0.072 -5.588,-0.15 -8.413,-0.233c-125.493,-3.69 -218.94,-12.108 -293.509,-11.119c-67.28,0.893 -117.793,9.153 -162.883,39.625c-63.708,43.054 -116.092,127.008 -190.212,281.518c-122.597,255.568 189.138,491.399 433.134,361.987c109.791,-58.232 204.679,-188.869 248.243,-418.182c21.275,-111.983 8.945,-195.618 -26.36,-253.596Zm1630.27,586.933c-160.739,39.661 -291.813,12.435 -363.632,-2.814c-0.751,0.77 -2.513,2.638 -3.328,4.029c-1.915,3.269 -3.248,7.153 -4.066,11.341c-1.377,7.056 -1.239,14.927 0.727,22.786c5.615,22.441 26.289,42.693 66.114,50.168c53.093,9.965 133.587,-1.552 251.983,-50.972c19.25,-8.035 36.553,-19.812 52.202,-34.538Zm545.756,-522.882c56.806,-86.147 113.349,-187.186 168.777,-305.513c149.636,-319.44 239.002,-572.913 272.279,-716.241c4.397,-18.939 7.799,-35.836 10.177,-50.584c-4.364,6.22 -8.811,12.927 -13.091,19.957c-63.429,104.175 -164.378,322.087 -300.402,681.477c-52.761,139.4 -98.503,262.621 -137.74,370.904Zm-3600.81,124.485c132.093,-163.787 265.462,-360.099 382.514,-577.609c181.699,-337.641 264.7,-548.751 279.359,-649.01c1.313,-8.978 1.462,-18.643 1.277,-26.113c-10.622,6.939 -22.802,17.673 -36.548,31.808c-77.193,79.38 -193.661,257.41 -318.324,518.57c-140.166,293.635 -239.973,524.395 -308.278,702.354Zm-4162.27,-784.638c60.978,-39.358 123.865,-80.846 187.267,-122.919c119.311,-79.174 183.327,-151.067 207.366,-210.313c12.488,-30.781 13.454,-56.708 3.201,-76.102c-15.262,-28.87 -52.634,-39.458 -95.773,-32.887c-81.442,12.406 -180.536,85.908 -243.633,241.215c-31.03,76.378 -49.892,143.126 -58.428,201.006Zm-2374.61,85.219c100.38,-57.967 197.144,-127.391 281.509,-206.017c108.125,-100.769 164.163,-180.733 182.173,-241.33c13.015,-43.789 3.044,-74.039 -25.228,-88.241c-42.866,-21.532 -112.129,-12.801 -182.417,20.617c-113.889,54.147 -228.939,176.186 -251.397,367.59c-6.596,56.212 -7.939,105.172 -4.64,147.381Zm9819.02,377.104c-0.003,-0.088 -0.005,-0.132 -0.005,-0.132c0.002,0.044 0.003,0.088 0.005,0.132Z"/><path d="M2973.3,632.528c193.406,136.476 311.901,268.432 393.749,371.56" style="fill:none;stroke:#000;stroke-width:66.67px;"/><path d="M2973.3,1048.93c0,0 447.04,-466.229 659.153,-575.967" style="fill:none;stroke:#000;stroke-width:66.67px;"/><path d="M13466.1,1756.04c150.334,182.843 229.63,341.479 281.229,462.607" style="fill:none;stroke:#000;stroke-width:66.67px;"/><path d="M13352.6,2134.76c-0,-0 541.999,-351.358 773.617,-409.559" style="fill:none;stroke:#000;stroke-width:66.67px;"/></g></svg>