<?xml version="1.0" encoding="UTF-8" standalone="no"?><!DOCTYPE svg PUBLIC "-//W3C//DTD SVG 1.1//EN" "http://www.w3.org/Graphics/SVG/1.1/DTD/svg11.dtd"><svg width="100%" height="100%" viewBox="0 0 1024 1024" version="1.1" xmlns="http://www.w3.org/2000/svg" xmlns:xlink="http://www.w3.org/1999/xlink" xml:space="preserve" xmlns:serif="http://www.serif.com/" style="fill-rule:evenodd;clip-rule:evenodd;stroke-linejoin:round;stroke-miterlimit:2;"><rect x="12" y="12" width="1000" height="1000" style="fill:#f5e374;"/><g id="j"><rect x="462.117" y="472.449" width="92.777" height="338.942"/><path d="M276.309,846.901l75.171,-46.249c-0,-0 18.599,47.776 59.841,48.692c60.234,1.337 50.796,-63.049 50.796,-63.049l92.777,-3.066c0,-0 14.511,143.107 -125.377,149.139c-129.355,5.579 -153.208,-85.467 -153.208,-85.467Z"/></g><g id="s"><path d="M607.185,836.293l75.171,-46.25c0,0 24.089,60.735 84.322,60.515c79.626,-0.291 71.724,-50.287 71.724,-50.287l92.777,-3.067c-0,0 11.447,129.378 -152.14,135.411c-129.387,4.771 -171.854,-96.322 -171.854,-96.322Z"/><path d="M634.009,602.084c0,-0 -2.977,90.029 106.824,126.502c106.411,35.347 98.36,72.347 98.36,72.347l92.158,-2.3c0,0 2.74,-93.962 -107.841,-136.861c-100.814,-39.11 -96.092,-64.147 -96.092,-64.147l-93.409,4.459Z"/><path d="M903.481,540.273l-71.816,47.739c0,-0 -16.754,-40.619 -53.479,-40.123c-61.622,0.832 -51.1,51.766 -51.1,51.766l-92.887,2.429c-0,-0 -10.856,-131.716 131.627,-136.252c100.898,-3.212 137.655,74.441 137.655,74.441Z"/></g></svg>