<?xml version="1.0" encoding="UTF-8" standalone="no"?><!DOCTYPE svg PUBLIC "-//W3C//DTD SVG 1.1//EN" "http://www.w3.org/Graphics/SVG/1.1/DTD/svg11.dtd"><svg width="100%" height="100%" viewBox="0 0 2642 2634" version="1.1" xmlns="http://www.w3.org/2000/svg" xmlns:xlink="http://www.w3.org/1999/xlink" xml:space="preserve" xmlns:serif="http://www.serif.com/" style="fill-rule:evenodd;clip-rule:evenodd;stroke-linejoin:round;stroke-miterlimit:2;"><rect x="1146.69" y="1718.84" width="348.287" height="807.658" style="fill:#fff;"/><rect x="1049.53" y="869.926" width="513.213" height="448.164" style="fill:#fff;"/><path d="M2302.64,1262.78l0,-348.287l-807.658,-0l-0,348.287l807.658,-0Z" style="fill:#fff;"/><path d="M1146.69,1262.78l-0,-348.287l-807.658,-0l-0,348.287l807.658,-0Z" style="fill:#fff;"/><path d="M1074.56,1088.64l246.276,-246.276l-571.1,-571.1l-246.276,246.276l571.1,571.1Z" style="fill:#fff;"/><path d="M1320.83,842.364l246.276,246.276l571.101,-571.1l-246.276,-246.276l-571.101,571.1Z" style="fill:#fff;"/><path d="M1567.11,1066.14l-246.276,246.276l571.101,571.1l246.276,-246.276l-571.101,-571.1Z" style="fill:#fff;"/><path d="M1320.83,1312.42l-246.276,-246.276l-571.1,571.1l246.276,246.276l571.1,-571.1Z" style="fill:#fff;"/><rect x="1146.69" y="106.839" width="348.287" height="807.658" style="fill:#fff;"/></svg>